<?xml version="1.0" encoding="utf-8"?>
<!-- Generator: Adobe Illustrator 19.0.0, SVG Export Plug-In . SVG Version: 6.00 Build 0)  -->
<!DOCTYPE svg PUBLIC "-//W3C//DTD SVG 1.1//EN" "http://www.w3.org/Graphics/SVG/1.1/DTD/svg11.dtd" [
	<!ENTITY ns_extend "http://ns.adobe.com/Extensibility/1.0/">
	<!ENTITY ns_ai "http://ns.adobe.com/AdobeIllustrator/10.0/">
	<!ENTITY ns_graphs "http://ns.adobe.com/Graphs/1.0/">
	<!ENTITY ns_vars "http://ns.adobe.com/Variables/1.0/">
	<!ENTITY ns_imrep "http://ns.adobe.com/ImageReplacement/1.0/">
	<!ENTITY ns_sfw "http://ns.adobe.com/SaveForWeb/1.0/">
	<!ENTITY ns_custom "http://ns.adobe.com/GenericCustomNamespace/1.0/">
	<!ENTITY ns_adobe_xpath "http://ns.adobe.com/XPath/1.0/">
]>
<svg version="1.1" id="Layer_1" xmlns:x="&ns_extend;" xmlns:i="&ns_ai;" xmlns:graph="&ns_graphs;"
	 xmlns="http://www.w3.org/2000/svg" xmlns:xlink="http://www.w3.org/1999/xlink" x="0px" y="0px" viewBox="0 0 200 200"
	 style="enable-background:new 0 0 200 200;" xml:space="preserve">
<style type="text/css">
	.st0{fill:#FFFFFF;}
</style>
<metadata>
	<sfw  xmlns="&ns_sfw;">
		<slices></slices>
		<sliceSourceBounds  width="196.5" height="106.4" y="-153.1" x="1.8" bottomLeftOrigin="true"></sliceSourceBounds>
	</sfw>
</metadata>
<g>
	<path id="XMLID_12_" class="st0" d="M132.2,83.3c-6.1,0-11.2-4.4-12.2-10.5h11.6c1.3,0,4.1,0.3,4.1,0.3v-5.1c0,0-2.7,0.2-4.3,0.2
		H120c1.1-6,6.1-10.2,12.2-10.2c3.2,0,7.1,1.5,7.1,1.5l0.1-5.4c0,0-2.8-1.1-7.2-1.1c-10.2,0-19,7.8-19,17.7c0,10.7,8.9,17.9,19,17.9
		c4.8,0,7.6-1.3,7.6-1.3l-0.1-5.6C139.7,81.7,136.2,83.3,132.2,83.3"/>
	<path id="XMLID_11_" class="st0" d="M97.6,88.4c0,0,0.4-2.6,0.4-4.8V59h-1.7c-2.3,0-5.8,0-8.4,0.3l-0.2-5.7h27l-0.1,5.7
		c-2.7-0.3-6.1-0.3-8.4-0.3h-2v24.6c0,2.3,0.5,4.8,0.5,4.8H97.6z"/>
	<path id="XMLID_10_" class="st0" d="M139.4,50.7c-2-0.5-4.6-0.9-6.8-0.9c-5.9,0-11,1.8-15.3,5.6l0.1-4.2c4.5-3.1,9.6-4.5,15.2-4.5
		c2.4,0,4.6,0.3,6.8,0.9L139.4,50.7z"/>
	<path class="st0" d="M71.8,70.4h-5V57.8c0,0,2.4-0.1,5.4-0.1c0.4,0,0.9,0,1.2,0.1c4.7,0.4,6.6,2.9,6.6,6c0,3.4-2.7,6-6.6,6.6
		C72.9,70.4,72.3,70.4,71.8,70.4 M85.6,83.6l-9.4-9c5.8-0.6,10.6-4.8,10.6-10.3c0-5.9-3.4-11-13.4-11.4c-0.4,0-0.9,0-1.3,0
		c-7,0-11.7,0.3-11.7,0.3s0.3,3.4,0.3,5.2v25.3c0,2.3-0.4,4.8-0.4,4.8h7c0,0-0.5-2.4-0.5-5.2V72.8l6.6,6.9l3.3,3.5
		c2.1,2.3,5.7,5.2,5.7,5.2h9.3C91.6,88.4,87.5,85.5,85.6,83.6"/>
	<path class="st0" d="M72.9,139.2c0,0.6-0.2,1.1-0.5,1.5c-0.3,0.4-0.8,0.6-1.3,0.6c-0.5,0-0.9-0.2-1.2-0.6c-0.3-0.4-0.5-0.9-0.5-1.5
		V118c0-0.6,0.1-1.1,0.5-1.4c0.3-0.4,0.7-0.5,1.2-0.5c0.5,0,1,0.2,1.3,0.5c0.3,0.4,0.5,0.8,0.5,1.4V139.2z M71.2,153.1
		c7.3,0,13.1-2.2,17.2-6.5c4.1-4.3,6.2-10.3,6.2-18c0-7.7-2.1-13.6-6.2-18c-4.1-4.3-9.9-6.5-17.2-6.5c-7.3,0-13,2.2-17.2,6.5
		c-4.1,4.3-6.2,10.3-6.2,18c0,7.7,2.1,13.7,6.2,18C58.2,150.9,63.9,153.1,71.2,153.1"/>
	<polygon id="XMLID_5_" class="st0" points="96.8,105 96.8,151.6 131.3,151.6 131.3,138.1 115.9,138.1 115.9,105 	"/>
	<path id="XMLID_4_" class="st0" d="M46,125.2v-1.5c0-6.3-1.8-11.1-5.4-14.5c-3.6-3.4-8.8-5-15.5-5c-7.3,0-13.1,2.2-17.2,6.5
		c-4.1,4.3-6.2,10.3-6.2,18c0,4,0.6,7.6,1.8,10.7c1.2,3.1,2.9,5.6,5.2,7.4c2.2,1.9,5.1,3.2,8.5,4c3.4,0.8,8.5,1.2,15.3,1.2H46v-23.8
		H26.9v10.4h2.4c1,0,1.7,0.8,1.7,1.7c0,0.9-0.8,1.7-1.7,1.7h-2.4v0h-0.7c-1.1,0-1.9-0.2-2.2-0.6c-0.4-0.4-0.6-1.4-0.6-2.8V116
		c0-0.6,0.1-1.1,0.4-1.4c0.3-0.3,0.7-0.5,1.3-0.5c0.6,0,1,0.2,1.3,0.5c0.3,0.3,0.5,0.8,0.5,1.4v9.2H46z"/>
	<path class="st0" d="M174.6,108.4c0,0-5.5,2-9.1,3.3c1.9-3.2,4.8-8.3,4.8-8.3s-3.3-3.7-5.7-6.3c3.5,0.8,8.5,1.9,8.5,1.9
		s3.4-5.6,5.6-9.2l1.2,10.7c0,0,5,1.1,8.5,1.9c-3.2,1.4-7.8,3.3-7.8,3.3s0.5,5.8,0.8,9.5C178.8,112.6,174.6,108.4,174.6,108.4
		 M156.2,142.4c0,1.3-0.8,2.4-1.9,2.4h-1.5v-29.7h1.5c1,0,1.9,1.1,1.9,2.4V142.4z M198.3,101.6c0,0-13.8-3.1-15.6-3.5
		c-0.2-1.8-2-17.2-2-17.2s-8,13.2-9,14.8c-1.7-0.4-15.6-3.5-15.6-3.5s9.3,10.3,10.6,11.7c-0.2,0.4-0.9,1.6-1.8,3.1
		c-3.9-1.3-8.7-1.9-14.5-1.9h-16.8v46.6h22.3c7.7,0,13.3-1.9,16.8-5.7c3.5-3.8,5.2-10,5.2-18.4c0-6.7-1.6-11.8-4.7-15.4
		c0.3-0.1,0.5-0.2,0.6-0.2c1.2,1.2,11.3,11.3,11.3,11.3s-1.2-13.7-1.4-15.5C185.5,107,198.3,101.6,198.3,101.6"/>
</g>
</svg>
