<?xml version="1.0" encoding="utf-8"?>
<!-- Generator: Adobe Illustrator 19.0.0, SVG Export Plug-In . SVG Version: 6.00 Build 0)  -->
<!DOCTYPE svg PUBLIC "-//W3C//DTD SVG 1.1//EN" "http://www.w3.org/Graphics/SVG/1.1/DTD/svg11.dtd" [
	<!ENTITY ns_extend "http://ns.adobe.com/Extensibility/1.0/">
	<!ENTITY ns_ai "http://ns.adobe.com/AdobeIllustrator/10.0/">
	<!ENTITY ns_graphs "http://ns.adobe.com/Graphs/1.0/">
	<!ENTITY ns_vars "http://ns.adobe.com/Variables/1.0/">
	<!ENTITY ns_imrep "http://ns.adobe.com/ImageReplacement/1.0/">
	<!ENTITY ns_sfw "http://ns.adobe.com/SaveForWeb/1.0/">
	<!ENTITY ns_custom "http://ns.adobe.com/GenericCustomNamespace/1.0/">
	<!ENTITY ns_adobe_xpath "http://ns.adobe.com/XPath/1.0/">
]>
<svg version="1.1" id="Layer_1" xmlns:x="&ns_extend;" xmlns:i="&ns_ai;" xmlns:graph="&ns_graphs;"
	 xmlns="http://www.w3.org/2000/svg" xmlns:xlink="http://www.w3.org/1999/xlink" x="0px" y="0px" viewBox="0 0 200 200"
	 style="enable-background:new 0 0 200 200;" xml:space="preserve">
<style type="text/css">
	.st0{clip-path:url(#XMLID_66_);fill:#66B245;}
	.st1{clip-path:url(#XMLID_66_);fill:#FFFFFF;}
	.st2{clip-path:url(#XMLID_66_);fill:#77BC1F;}
	.st3{clip-path:url(#XMLID_66_);fill:#7AC143;}
	.st4{clip-path:url(#XMLID_66_);fill:#C1D82F;}
	.st5{clip-path:url(#XMLID_66_);fill:#19398A;}
	.st6{clip-path:url(#XMLID_66_);fill:#EF5091;}
	.st7{clip-path:url(#XMLID_66_);fill:#9C9FC9;}
	.st8{fill:#FFFFFF;}
	.st9{clip-path:url(#XMLID_67_);fill:#19398A;}
	.st10{clip-path:url(#XMLID_67_);fill:#FFFFFF;}
	.st11{clip-path:url(#XMLID_67_);fill:#77BC1F;}
	.st12{clip-path:url(#XMLID_67_);fill:#C4D600;}
	.st13{clip-path:url(#XMLID_67_);fill:#E7417A;}
	.st14{clip-path:url(#XMLID_67_);fill:#67B2E8;}
	.st15{fill:#FFD923;}
	.st16{clip-path:url(#XMLID_69_);fill:#19398A;}
	.st17{clip-path:url(#XMLID_69_);fill:none;stroke:#19398A;stroke-width:5.612100e-02;}
</style>
<metadata>
	<sfw  xmlns="&ns_sfw;">
		<slices></slices>
		<sliceSourceBounds  width="199.8" height="122.6" y="-162.7" x="0.2" bottomLeftOrigin="true"></sliceSourceBounds>
	</sfw>
</metadata>
<g id="XMLID_64_">
	<g id="XMLID_101_">
		<defs>
			<rect id="XMLID_32_" x="0.2" y="40.1" width="199.8" height="122.6"/>
		</defs>
		<clipPath id="XMLID_66_">
			<use xlink:href="#XMLID_32_"  style="overflow:visible;"/>
		</clipPath>
		<path id="XMLID_62_" class="st0" d="M114.4,147.4c0,3.9-3.1,7.1-6.9,7.1H33.4c-3.8,0-6.9-3.2-6.9-7.1v-16.2c0-3.9,3.1-7.1,6.9-7.1
			h74.1c3.8,0,6.9,3.2,6.9,7.1V147.4z"/>
		<path id="XMLID_61_" class="st1" d="M122.5,131.5c0-8.7-7-15.7-15.7-15.7H33.9c-8.6,0-15.7,7.1-15.7,15.7V147
			c0,8.7,7,15.7,15.7,15.7h72.9c8.6,0,15.7-7,15.7-15.7V131.5z"/>
		<path id="XMLID_60_" class="st2" d="M114.4,147.4c0,3.9-3.1,7.1-6.9,7.1H33.4c-3.8,0-6.9-3.2-6.9-7.1v-16.2c0-3.9,3.1-7.1,6.9-7.1
			h74.1c3.8,0,6.9,3.2,6.9,7.1V147.4z"/>
		<path id="XMLID_135_" class="st1" d="M44.5,136.4c-0.1-0.3-0.2-0.5-0.4-0.7c-0.2-0.2-0.4-0.3-0.7-0.4c-0.3-0.1-0.5-0.2-0.8-0.2h-2
			l0,4.1l2,0c0.3,0,0.5,0,0.8-0.2c0.3-0.1,0.5-0.3,0.7-0.4c0.2-0.2,0.3-0.4,0.4-0.7c0.1-0.2,0.1-0.5,0.1-0.8
			C44.7,136.9,44.6,136.7,44.5,136.4 M41.7,144.2C41.7,144.2,41.7,144.2,41.7,144.2h-1c0,0.6,0,1.5,0,1.5c0,0.7-0.2,1.3-0.7,1.7
			c-0.5,0.5-1.1,0.7-1.7,0.7c-0.7,0-1.3-0.2-1.7-0.7c-0.5-0.5-0.7-1.1-0.7-1.7l0-13c0-0.7,0.2-1.3,0.7-1.7c0.5-0.5,1.1-0.7,1.7-0.7
			l4.5,0c0.9,0,1.8,0.2,2.7,0.5c0.8,0.4,1.6,0.9,2.2,1.5c0.6,0.6,1.1,1.4,1.5,2.2c0.4,0.8,0.5,1.8,0.6,2.7c0,1.3-0.3,2.4-0.9,3.5
			c-0.6,1.1-1.6,1.9-1.6,1.9c0.6,0.5,1.3,1.3,1.3,1.3c0.5,0.5,0.7,1.1,0.7,1.7c0,0.7-0.2,1.3-0.7,1.7c-0.5,0.5-1,0.8-1.7,0.8
			c-0.7,0-1.3-0.3-1.8-0.7C44.9,147.4,42.4,144.9,41.7,144.2C41.7,144.2,41.7,144.2,41.7,144.2"/>
		<path id="XMLID_132_" class="st1" d="M77.4,136.7c0-0.2,0-0.4-0.1-0.6c-0.1-0.2-0.2-0.4-0.3-0.5c-0.1-0.1-0.3-0.3-0.5-0.3
			c-0.2-0.1-0.4-0.1-0.6-0.1h-2.2l0,7.9c0.9,0,2.2,0,2.2,0c0.2,0,0.4,0,0.6-0.1c0.2-0.1,0.4-0.2,0.5-0.3c0.1-0.1,0.3-0.3,0.3-0.5
			c0.1-0.2,0.1-0.4,0.1-0.6L77.4,136.7z M75.8,130.2c0.8,0,1.7,0.2,2.5,0.5c0.8,0.3,1.5,0.8,2.1,1.4c0.6,0.6,1.1,1.3,1.4,2.1
			c0.4,0.8,0.6,1.7,0.6,2.6l0,4.7c0,0.9-0.2,1.7-0.5,2.5c-0.3,0.8-0.8,1.5-1.4,2.1c-0.6,0.6-1.3,1.1-2.1,1.4
			c-0.8,0.4-1.6,0.5-2.5,0.5h-4.7c-0.7,0-1.2-0.2-1.7-0.7c-0.5-0.5-0.8-1.1-0.8-1.8l0-12.9c0-0.6,0.2-1.2,0.7-1.7
			c0.5-0.5,1.1-0.8,1.8-0.8C71.2,130.2,75.8,130.2,75.8,130.2"/>
		<path id="XMLID_55_" class="st1" d="M87.6,130.2c0.6,0,1.2,0.3,1.7,0.7c0.5,0.5,0.7,1.1,0.7,1.7l0,12.9c0,0.7-0.2,1.3-0.7,1.8
			c-0.5,0.5-1.1,0.7-1.7,0.7c-0.7,0-1.3-0.2-1.8-0.7c-0.5-0.5-0.7-1.1-0.7-1.7l0-12.9c0-0.7,0.2-1.2,0.7-1.7
			C86.3,130.4,86.9,130.2,87.6,130.2"/>
		<path id="XMLID_128_" class="st1" d="M101.8,137.1c0-0.3,0-0.6-0.2-0.8c-0.1-0.3-0.2-0.5-0.4-0.7c-0.2-0.2-0.4-0.3-0.7-0.5
			c-0.3-0.1-0.5-0.2-0.8-0.2c-0.3,0-0.6,0-0.8,0.2c-0.3,0.1-0.5,0.3-0.7,0.4c-0.2,0.2-0.3,0.4-0.4,0.6c-0.1,0.2-0.2,0.5-0.2,0.8
			c0,0,0,4.1,0,4.1c0,0.3,0,0.6,0.1,0.8c0.1,0.3,0.3,0.5,0.4,0.7c0.2,0.2,0.4,0.3,0.7,0.5c0.2,0.1,0.6,0.2,0.9,0.2
			c0.3,0,0.5-0.1,0.8-0.2c0.3-0.1,0.5-0.3,0.7-0.4c0.2-0.2,0.3-0.4,0.4-0.6c0.1-0.2,0.2-0.5,0.2-0.8L101.8,137.1z M99.7,148
			c-0.9,0-1.8-0.2-2.7-0.5c-0.8-0.3-1.6-0.8-2.2-1.4c-0.6-0.6-1.1-1.3-1.5-2.1c-0.4-0.8-0.6-1.7-0.6-2.7l0-4.2
			c0-0.9,0.2-1.8,0.5-2.7c0.3-0.8,0.8-1.6,1.4-2.2c0.6-0.6,1.4-1.1,2.2-1.5c0.8-0.4,1.8-0.6,2.8-0.6c0.9,0,1.8,0.2,2.6,0.5
			c0.8,0.3,1.6,0.8,2.2,1.4c0.6,0.6,1.1,1.3,1.5,2.1c0.4,0.8,0.6,1.7,0.6,2.7l0,4.2c0,0.9-0.2,1.9-0.5,2.7c-0.3,0.9-0.8,1.6-1.5,2.2
			c-0.6,0.6-1.4,1.1-2.2,1.5C101.7,147.8,100.7,148,99.7,148"/>
		<path id="XMLID_125_" class="st1" d="M56.9,138.6c0,0,0-1,0-1.4c0-1.2,1-2.1,2.1-2.1c1.2,0,2.1,1,2.1,2.1c0,0.5,0,1.4,0,1.4
			L56.9,138.6z M61.2,143.4l0,2.3c0,0.7,0.3,1.3,0.7,1.7c0.5,0.4,1,0.6,1.7,0.6c0.7,0,1.2-0.3,1.7-0.7c0.4-0.5,0.7-1,0.7-1.7l0-8.6
			c0-1-0.2-1.9-0.6-2.7c-0.4-0.8-0.9-1.5-1.5-2.1c-0.6-0.6-1.4-1.1-2.2-1.4c-0.8-0.3-1.7-0.5-2.6-0.5c-1,0-1.9,0.2-2.7,0.6
			c-0.8,0.4-1.6,0.9-2.2,1.5c-0.6,0.6-1.1,1.4-1.4,2.2c-0.3,0.8-0.5,1.8-0.5,2.7c0,0,0,8.5,0,8.5c0,0.7,0.3,1.2,0.8,1.7
			c0.5,0.4,1,0.6,1.7,0.6c0.7,0,1.2-0.2,1.7-0.7c0.5-0.5,0.7-1,0.7-1.7c0,0,0-1.3,0-2.2L61.2,143.4z"/>
		<path id="XMLID_122_" class="st1" d="M44.5,136.4c-0.1-0.3-0.2-0.5-0.4-0.7c-0.2-0.2-0.4-0.3-0.7-0.4c-0.3-0.1-0.5-0.2-0.8-0.2h-2
			l0,4.1l2,0c0.3,0,0.5,0,0.8-0.2c0.3-0.1,0.5-0.3,0.7-0.4c0.2-0.2,0.3-0.4,0.4-0.7c0.1-0.2,0.1-0.5,0.1-0.8
			C44.7,136.9,44.6,136.7,44.5,136.4 M41.7,144.2C41.7,144.2,41.7,144.2,41.7,144.2h-1c0,0.6,0,1.5,0,1.5c0,0.7-0.2,1.3-0.7,1.7
			c-0.5,0.5-1.1,0.7-1.7,0.7c-0.7,0-1.3-0.2-1.7-0.7c-0.5-0.5-0.7-1.1-0.7-1.7l0-13c0-0.7,0.2-1.3,0.7-1.7c0.5-0.5,1.1-0.7,1.7-0.7
			l4.5,0c0.9,0,1.8,0.2,2.7,0.5c0.8,0.4,1.6,0.9,2.2,1.5c0.6,0.6,1.1,1.4,1.5,2.2c0.4,0.8,0.5,1.8,0.6,2.7c0,1.3-0.3,2.4-0.9,3.5
			c-0.6,1.1-1.6,1.9-1.6,1.9c0.6,0.5,1.3,1.3,1.3,1.3c0.5,0.5,0.7,1.1,0.7,1.7c0,0.7-0.2,1.3-0.7,1.7c-0.5,0.5-1,0.8-1.7,0.8
			c-0.7,0-1.3-0.3-1.8-0.7C44.9,147.4,42.4,144.9,41.7,144.2C41.7,144.2,41.7,144.2,41.7,144.2"/>
		<path id="XMLID_119_" class="st1" d="M77.4,136.7c0-0.2,0-0.4-0.1-0.6c-0.1-0.2-0.2-0.4-0.3-0.5c-0.1-0.1-0.3-0.3-0.5-0.3
			c-0.2-0.1-0.4-0.1-0.6-0.1h-2.2l0,7.9c0.9,0,2.2,0,2.2,0c0.2,0,0.4,0,0.6-0.1c0.2-0.1,0.4-0.2,0.5-0.3c0.1-0.1,0.3-0.3,0.3-0.5
			c0.1-0.2,0.1-0.4,0.1-0.6L77.4,136.7z M75.8,130.2c0.8,0,1.7,0.2,2.5,0.5c0.8,0.3,1.5,0.8,2.1,1.4c0.6,0.6,1.1,1.3,1.4,2.1
			c0.4,0.8,0.6,1.7,0.6,2.6l0,4.7c0,0.9-0.2,1.7-0.5,2.5c-0.3,0.8-0.8,1.5-1.4,2.1c-0.6,0.6-1.3,1.1-2.1,1.4
			c-0.8,0.4-1.6,0.5-2.5,0.5h-4.7c-0.7,0-1.2-0.2-1.7-0.7c-0.5-0.5-0.8-1.1-0.8-1.8l0-12.9c0-0.6,0.2-1.2,0.7-1.7
			c0.5-0.5,1.1-0.8,1.8-0.8C71.2,130.2,75.8,130.2,75.8,130.2"/>
		<path id="XMLID_46_" class="st1" d="M87.6,130.2c0.6,0,1.2,0.3,1.7,0.7c0.5,0.5,0.7,1.1,0.7,1.7l0,12.9c0,0.7-0.2,1.3-0.7,1.8
			c-0.5,0.5-1.1,0.7-1.7,0.7c-0.7,0-1.3-0.2-1.8-0.7c-0.5-0.5-0.7-1.1-0.7-1.7l0-12.9c0-0.7,0.2-1.2,0.7-1.7
			C86.3,130.4,86.9,130.2,87.6,130.2"/>
		<path id="XMLID_115_" class="st1" d="M101.8,137.1c0-0.3,0-0.6-0.2-0.8c-0.1-0.3-0.2-0.5-0.4-0.7c-0.2-0.2-0.4-0.3-0.7-0.5
			c-0.3-0.1-0.5-0.2-0.8-0.2c-0.3,0-0.6,0-0.8,0.2c-0.3,0.1-0.5,0.3-0.7,0.4c-0.2,0.2-0.3,0.4-0.4,0.6c-0.1,0.2-0.2,0.5-0.2,0.8
			c0,0,0,4.1,0,4.1c0,0.3,0,0.6,0.1,0.8c0.1,0.3,0.3,0.5,0.4,0.7c0.2,0.2,0.4,0.3,0.7,0.5c0.2,0.1,0.6,0.2,0.9,0.2
			c0.3,0,0.5-0.1,0.8-0.2c0.3-0.1,0.5-0.3,0.7-0.4c0.2-0.2,0.3-0.4,0.4-0.6c0.1-0.2,0.2-0.5,0.2-0.8L101.8,137.1z M99.7,148
			c-0.9,0-1.8-0.2-2.7-0.5c-0.8-0.3-1.6-0.8-2.2-1.4c-0.6-0.6-1.1-1.3-1.5-2.1c-0.4-0.8-0.6-1.7-0.6-2.7l0-4.2
			c0-0.9,0.2-1.8,0.5-2.7c0.3-0.8,0.8-1.6,1.4-2.2c0.6-0.6,1.4-1.1,2.2-1.5c0.8-0.4,1.8-0.6,2.8-0.6c0.9,0,1.8,0.2,2.6,0.5
			c0.8,0.3,1.6,0.8,2.2,1.4c0.6,0.6,1.1,1.3,1.5,2.1c0.4,0.8,0.6,1.7,0.6,2.7l0,4.2c0,0.9-0.2,1.9-0.5,2.7c-0.3,0.9-0.8,1.6-1.5,2.2
			c-0.6,0.6-1.4,1.1-2.2,1.5C101.7,147.8,100.7,148,99.7,148"/>
		<path id="XMLID_112_" class="st1" d="M56.9,138.6c0,0,0-1,0-1.4c0-1.2,1-2.1,2.1-2.1c1.2,0,2.1,1,2.1,2.1c0,0.5,0,1.4,0,1.4
			L56.9,138.6z M61.2,143.4l0,2.3c0,0.7,0.3,1.3,0.7,1.7c0.5,0.4,1,0.6,1.7,0.6c0.7,0,1.2-0.3,1.7-0.7c0.4-0.5,0.7-1,0.7-1.7l0-8.6
			c0-1-0.2-1.9-0.6-2.7c-0.4-0.8-0.9-1.5-1.5-2.1c-0.6-0.6-1.4-1.1-2.2-1.4c-0.8-0.3-1.7-0.5-2.6-0.5c-1,0-1.9,0.2-2.7,0.6
			c-0.8,0.4-1.6,0.9-2.2,1.5c-0.6,0.6-1.1,1.4-1.4,2.2c-0.3,0.8-0.5,1.8-0.5,2.7c0,0,0,8.5,0,8.5c0,0.7,0.3,1.2,0.8,1.7
			c0.5,0.4,1,0.6,1.7,0.6c0.7,0,1.2-0.2,1.7-0.7c0.5-0.5,0.7-1,0.7-1.7c0,0,0-1.3,0-2.2L61.2,143.4z"/>
		<path id="XMLID_41_" class="st3" d="M191.1,88.6c-3.3-3.3-7.4-5-12-5h-3c-2.8,0-5.5,0.5-8,1.4c-0.6-0.9-1.3-1.7-2-2.4
			c-3.3-3.3-7.4-5-12-5c-1.4,0-2.8,0.2-4.2,0.5c-0.7-5.7-3.2-10.8-7.4-15.1l0,0c-0.7-0.8-1.6-1.5-2.5-2.2c-0.1-0.9-0.2-1.8-0.4-2.6
			c-0.8-3.1-2.4-5.9-4.5-8.1c-3.5-3.6-8-5.4-12.9-5.4c-4.9,0-9.1,1.8-12.6,5.4l0,0c-0.1,0.1-0.2,0.2-0.3,0.3l-0.8,0.8l-2.3,2.3
			l-3.4,3.3l0,0l-0.1,0.1c-0.8,0.9-1.5,1.9-2.1,2.9c-4.3-4-9.4-6.1-15.3-6.1h-0.9c-1.5-2.1-3.3-3.9-5.4-5.4
			c-3.9-2.8-8.2-4.2-12.9-4.2c-6.2,0-11.5,2.2-15.9,6.6c-1.2,1.2-2.2,2.5-3.1,3.9c-2-0.5-4-0.8-6-0.8h-4.8c-8.7,0-16.3,3.2-22.6,9.4
			c-6.2,6.3-9.4,13.9-9.4,22.7v9.6c0,6.3,2.2,11.6,6.5,16c4.3,4.3,9.7,6.5,15.9,6.5c6.2,0,11.5-2.2,15.8-6.5
			c2.6-2.7,4.5-5.7,5.5-9.1c1.4,2.3,3,4.4,5,6.3c6.3,6.2,13.9,9.3,22.5,9.3h4.8c6.1,0,11.5-2.2,15.8-6.6c0.6-0.6,1.2-1.3,1.7-1.9
			c5.9,5.7,13.1,8.6,21.3,8.6l9.1,0c0.9,0,1.8-0.1,2.7-0.2c0,0.3,0,0.6,0,0.9c0,4.6,1.7,8.7,5,12c3.3,3.3,7.4,5,12,5
			c6.3,0,11.8-2.3,16.2-6.7l0,0l0,0l0,0c0,0,0.1-0.1,0.1-0.1c1.8,0.6,3.7,1,5.7,1c4.6,0,8.8-1.7,12-5c2.4-2.4,4-5.5,4.7-8.9
			c1.6-0.8,3-1.8,4.3-3.1c3.3-3.3,5-7.5,5-12.1C196.1,96.1,194.4,91.9,191.1,88.6"/>
		<path id="XMLID_40_" class="st4" d="M188,91.7c-2.5-2.5-5.5-3.7-9-3.7h-3c-3.7,0-7,1-9.9,2.9c-0.6-1.9-1.6-3.7-3.2-5.2
			c-2.5-2.5-5.5-3.7-9-3.7c-3.3,0-6.1,1.1-8.5,3.3c0.2-1.1,0.3-2.3,0.3-3.4v-0.1c0-6.1-2.2-11.4-6.4-15.7c0,0,0,0,0,0
			c-1.1-1.1-2.3-2.2-3.6-3.1c0-0.1,0-0.6,0-0.6c0-1.1-0.1-2.2-0.4-3.2c-0.6-2.4-1.8-4.5-3.4-6.1c-2.7-2.7-6-4.1-9.8-4.1l0,0h0
			c-3.7,0-6.9,1.4-9.6,4.1h0l-6.7,6.6l-0.1,0.1c-1.3,1.4-2.2,3.1-2.5,5c-0.9,0.7-1.7,1.4-2.5,2.2c-0.8-1.3-1.7-2.5-2.8-3.6
			c-3.5-3.6-7.8-5.3-12.8-5.3h-3.2c-1.3-2.5-3.2-4.6-5.5-6.2c-3.2-2.3-6.6-3.4-10.4-3.4c-5,0-9.3,1.8-12.8,5.4
			c-1.8,1.8-3.2,3.9-4.1,6.2c-2.5-1.3-5.2-1.9-8.1-1.9h-4.8c-7.6,0-14.1,2.7-19.5,8.2c-5.4,5.4-8.1,12-8.1,19.7v9.6
			c0,5.1,1.8,9.4,5.2,12.9c3.5,3.5,7.8,5.3,12.8,5.3c5,0,9.3-1.8,12.8-5.3c3.5-3.5,5.3-7.9,5.3-12.9V94c1.4-0.3,2.7-0.7,4-1.3
			c1.2,4.9,3.6,9.2,7.3,12.9c5.5,5.4,12,8.1,19.5,8.1h4.8c4.9,0,9.2-1.8,12.8-5.3c1.9-1.9,3.3-4,4.1-6.3c0.9,1.3,1.9,2.6,3.1,3.7
			c5.2,5.3,11.6,8,18.9,7.9l9.1,0c3.8,0,7.1-1.1,10-3.1c-0.2,0.2-0.4,0.5-0.6,0.7c-1.6,2.2-2.3,4.7-2.3,7.5c0,3.4,1.2,6.4,3.7,8.9
			c2.5,2.5,5.5,3.7,8.9,3.7c5.1,0,9.6-1.8,13.2-5.5c0.7-0.7,1.4-1.6,2-2.4c2,1.3,4.3,2,6.9,2c3.5,0,6.5-1.2,8.9-3.7
			c2.4-2.4,3.7-5.4,3.7-8.8c2-0.6,3.7-1.6,5.3-3.2c2.5-2.5,3.7-5.5,3.7-9C191.7,97.2,190.5,94.2,188,91.7"/>
		<path id="XMLID_39_" class="st1" d="M114.4,66.9c0,0,0.1,0.1,0.1,0.1s7.6-0.4,7.7-0.4c1.6,0,2.9-0.7,3.7-2.2l0,0l0,0
			c0.8-1.8,0.6-3.4-0.7-4.7c-0.8-0.8-1.7-1.2-2.7-1.2c-1.1-0.1-2.1,0.3-2.9,1l0,0l-5.7,5.5l0,0.1c-0.2,0.2-0.3,0.5-0.3,0.7
			c0,0.3,0.1,0.6,0.4,0.8C114.1,66.8,114.2,66.9,114.4,66.9"/>
		<path id="XMLID_38_" class="st1" d="M41,70.6h-4.8c-4.1,0-7.8,1.5-10.7,4.5c-3,3-4.5,6.6-4.5,10.8v9.6c0,1.6,0.6,2.9,1.7,4
			c1.1,1.1,2.5,1.7,4,1.7c1.5,0,2.9-0.6,4-1.7c1.1-1.1,1.6-2.5,1.6-4v-9.6c0-1.1,0.4-2.1,1.1-2.9c0.8-0.8,1.7-1.2,2.8-1.2H41
			c1.5,0,2.9-0.6,4-1.7c1.1-1.1,1.6-2.4,1.6-4c0-1.5-0.6-2.9-1.6-4C43.8,71.2,42.5,70.6,41,70.6"/>
		<path id="XMLID_37_" class="st1" d="M85.1,70.6H71.6v-4c0-1.5-0.5-2.9-1.6-4c-1.1-1.1-2.4-1.7-4-1.7c-1.5,0-2.9,0.6-4,1.6
			c-1.1,1.1-1.7,2.4-1.7,4v18.6h0c0,0,0,0.8,0,0.9v0l0,0c0.1,4.1,1.6,7.7,4.6,10.7c2.9,2.9,6.5,4.4,10.7,4.4h4.8
			c1.5,0,2.9-0.6,4-1.7c1.1-1.1,1.6-2.5,1.6-4c0-1.5-0.6-2.9-1.6-4c-1.1-1.1-2.4-1.7-4-1.7h-4h-0.8c-2.5-0.2-3.7-1.3-3.9-3.8v-4.1
			h13.5c1.5,0,2.9-0.6,4-1.7c1.1-1.1,1.7-2.4,1.7-4c0-1.5-0.6-2.9-1.7-4C88,71.2,86.6,70.6,85.1,70.6"/>
		<path id="XMLID_36_" class="st1" d="M133.8,96.4v-0.8c0,0,0-0.1-0.1-0.1c0,0,0-0.7,0-0.7s0,0-0.1-0.1v-0.5c0,0-0.1,0-0.1-0.1
			c0-0.1,0-0.2,0-0.2s-0.1-0.1-0.1-0.2v-0.1l-0.3-0.3c-0.5-1-1.3-1.8-2.3-2.3c0,0-0.3-0.3-0.3-0.3h-0.1c-0.1-0.1-0.1-0.1-0.1-0.1
			h-0.4c-0.1,0-0.1,0-0.2,0c-0.1,0-0.2-0.1-0.3-0.1c2.2-1.4,3.6-3.5,4.2-6.5c0-0.1,0.1-0.1,0.1-0.1s0-0.6,0-0.6
			c0-0.1,0.1-0.3,0.1-0.4v-0.2c0,0,0-0.2,0-0.2l0.1-0.6c0-2.8-1-5.2-2.9-7.2c-1.9-2-4.3-3-7.1-3l-4.6,0c-4,0-7.4,1.5-10.3,4.4
			c-2.9,2.9-4.3,6.5-4.3,10.5c0,4.1,1.5,7.6,4.3,10.5c2.9,2.9,6.3,4.4,10.3,4.4l9.1,0c1.8,0,3.3-0.8,4.3-2.2c0.2,0,0.5,0,0.5,0v-0.1
			h0.1v-0.2h0.1c0,0,0-0.2,0-0.4h0.1v-0.6c0,0,0,0,0,0h0.2c0,0,0-0.7,0-0.8c0,0,0.1-0.1,0.1-0.1v-0.4L133.8,96.4
			C133.7,96.4,133.8,96.4,133.8,96.4"/>
		<path id="XMLID_35_" class="st5" d="M185.4,94.3c-1.8-1.8-3.9-2.7-6.3-2.7h-3c-4.1,0-7.6,1.5-10.5,4.4c-1.4,1.4-2.4,2.9-3.2,4.5
			c-0.2-0.5-0.4-0.9-0.6-1.4c0.8-1.5,1.2-3,1.2-4.6c0-2.5-0.9-4.6-2.6-6.3c-1.8-1.8-3.9-2.7-6.3-2.7c-2.5,0-4.6,0.9-6.4,2.7
			c-1.7,1.7-2.6,3.9-2.6,6.3c0,1.7,0.4,3.2,1.3,4.6c-0.9,1.4-1.3,2.9-1.3,4.6v6.3c-1.7,0.6-3.1,1.7-4.2,3.2
			c-1.1,1.5-1.7,3.3-1.7,5.3c0,2.4,0.9,4.5,2.6,6.3c1.8,1.8,3.9,2.7,6.3,2.7c4.1,0,7.7-1.5,10.6-4.4c1.8-1.8,3-3.7,3.7-6
			c0.4,0.7,0.9,1.3,1.4,1.8c1.7,1.7,3.9,2.6,6.4,2.6c2.5,0,4.6-0.9,6.3-2.6c1.8-1.8,2.6-3.9,2.6-6.4v-3c2.5,0,4.6-0.9,6.3-2.6
			c1.8-1.8,2.7-3.9,2.7-6.4C188,98.2,187.1,96.1,185.4,94.3"/>
		<path id="XMLID_34_" class="st6" d="M151,112.7c0,1.5-0.7,2.5-2.2,2.9c-0.2,0.1-0.5,0.1-0.9,0.1c-0.8,0-1.4,0.3-2.1,0.9
			c-0.6,0.6-0.9,1.3-0.9,2.1c0,0.8,0.3,1.5,0.9,2.1c0.6,0.6,1.3,0.9,2.1,0.9c2.4,0,4.5-0.9,6.2-2.6c1.8-1.7,2.7-3.8,2.7-6.2v-9
			c0-0.9-0.3-1.6-0.9-2.2c-0.6-0.6-1.3-0.9-2.1-0.9c-0.8,0-1.5,0.3-2.1,0.9c-0.6,0.6-0.9,1.3-0.9,2.1V112.7z"/>
		<path id="XMLID_33_" class="st7" d="M173.1,106.7c0-0.9,0.3-1.6,0.9-2.2c0.6-0.6,1.3-0.9,2.1-0.9h3c0.8,0,1.5-0.3,2.1-0.9
			c0.6-0.6,0.9-1.3,0.9-2.1c0-0.8-0.3-1.5-0.9-2.1c-0.6-0.6-1.3-0.9-2.1-0.9h-3c-2.5,0-4.6,0.9-6.3,2.7c-1.8,1.8-2.6,3.9-2.6,6.4v6
			c0,0.8,0.3,1.5,0.9,2.1c0.6,0.6,1.3,0.9,2.1,0.9c0.8,0,1.5-0.3,2.1-0.9c0.6-0.6,0.9-1.3,0.9-2.1V106.7z"/>
	</g>
	<polygon id="XMLID_31_" class="st8" points="157.7,99.5 154.2,97.6 150.6,99.5 151.3,95.5 148.5,92.7 152.5,92.1 154.3,88.5 
		156,92.2 160,92.8 157.1,95.6 	"/>
	<g id="XMLID_81_">
		<defs>
			<rect id="XMLID_14_" x="0.2" y="40.1" width="199.8" height="122.6"/>
		</defs>
		<clipPath id="XMLID_67_">
			<use xlink:href="#XMLID_14_"  style="overflow:visible;"/>
		</clipPath>
		<path id="XMLID_94_" class="st9" d="M128.5,91.2c2.4,0,4.3,2.1,4.3,4.7c0,2.6-1.9,4.7-4.3,4.7l-9.4,0c-3.8,0-7-1.4-9.7-4.1
			c-2.7-2.8-4.1-6-4.1-9.9c0-3.8,1.3-7.1,4-9.9c2.7-2.8,5.9-4.2,9.7-4.2l4.6,0c2.6,0,4.7,0.9,6.5,2.7c1.8,1.8,2.7,4,2.7,6.6
			c0,1-0.2,1.9-0.2,1.9c-0.8,4.1-3.2,6.5-7.4,7.3c0,0-0.3,0.1-0.4,0.1l-0.5,0.1H128.5z M114.4,65.5c0.9-0.9,1.9-1.8,2.8-2.7
			c0.9-0.9,1.9-1.8,2.8-2.7c0.6-0.6,1.4-0.8,2.3-0.8c0.9,0,1.6,0.4,2.2,1c1.1,1.1,1.3,2.3,0.6,3.8c-0.7,1.2-1.6,1.8-3,1.8l-7.3,0.3
			c0,0-0.1,0-0.1,0c-0.1,0-0.1,0-0.2-0.1C114.3,65.9,114.3,65.7,114.4,65.5 M88.5,79.6c-0.9,0.9-2.1,1.4-3.4,1.4H70.7v5
			c0.2,3,1.8,4.5,4.8,4.5l4.8,0.2c1.3,0,2.4,0.5,3.4,1.4c0.9,0.9,1.4,2.1,1.4,3.4c0,1.3-0.5,2.5-1.4,3.4c-0.9,1-2.1,1.4-3.4,1.4
			h-4.8c-3.9,0-7.3-1.4-10.1-4.2c-2.8-2.8-4.2-6.2-4.3-10.1v-0.2V66.6c0-1.3,0.5-2.4,1.4-3.4c1-0.9,2.1-1.4,3.4-1.4
			c1.3,0,2.4,0.5,3.4,1.4c0.9,0.9,1.4,2.1,1.4,3.4v4.9h14.4c1.3,0,2.4,0.5,3.4,1.4c0.9,0.9,1.4,2.1,1.4,3.4
			C89.9,77.6,89.4,78.7,88.5,79.6 M44.3,79.6C43.4,80.6,42.3,81,41,81h-4.8c-1.3,0-2.4,0.5-3.4,1.4c-0.9,0.9-1.4,2.1-1.4,3.5v9.6
			c0,1.3-0.5,2.5-1.4,3.4c-0.9,1-2.1,1.4-3.4,1.4c-1.3,0-2.4-0.5-3.4-1.4c-1-1-1.4-2.1-1.4-3.4v-9.6c0-4,1.4-7.3,4.2-10.2
			c2.8-2.8,6.2-4.3,10.1-4.3H41c1.3,0,2.4,0.5,3.4,1.4c0.9,0.9,1.4,2.1,1.4,3.4C45.7,77.6,45.3,78.7,44.3,79.6 M140.5,89.3
			c1-2.4,1.5-4.9,1.5-7.5c0-5.1-1.8-9.5-5.4-13.1c-1.5-1.6-3.2-2.8-5-3.7c0.4-1.6,0.4-3.2,0-4.8c-0.5-1.8-1.3-3.2-2.5-4.5
			c-1.9-2-4.3-3-7.1-2.9c-2.7,0-5.1,1-7,3.1l-6.7,6.5l0,0c-1,1.1-1.5,2.3-1.6,3.7c0,0.2,0,0.5,0,0.7c-1.4,0.9-2.7,2-3.9,3.3
			c-1.4,1.4-2.5,2.9-3.5,4.5c-0.3-3.2-1.7-6.1-4.1-8.5c-2.8-2.8-6.2-4.3-10.1-4.3h-5.6c-1-2.8-2.8-5.1-5.3-6.9
			c-2.5-1.8-5.3-2.7-8.3-2.7c-4,0-7.4,1.4-10.2,4.3c-2.8,2.8-4.1,6.2-4.2,10.1c-0.2-0.2-0.3-0.3-0.5-0.5c-2.8-2.8-6.2-4.3-10.1-4.3
			h-4.8c-6.6,0-12.2,2.4-16.9,7.1c-4.7,4.7-7,10.4-7,17v9.6c0,4.1,1.4,7.5,4.2,10.3c2.8,2.8,6.2,4.2,10.2,4.2c4,0,7.4-1.4,10.1-4.2
			c2.8-2.8,4.2-6.3,4.2-10.3v-4.8c4,0,7.4-1.4,10.1-4.2c0.2-0.2,0.3-0.3,0.5-0.5v0c0,6.6,2.4,12.3,7,16.9c4.7,4.7,10.4,7,16.9,7h4.8
			c3.9,0,7.3-1.4,10.1-4.3c2.8-2.8,4.2-6.2,4.2-10.2c0-2.5-0.6-4.9-1.9-7.1c1.3-0.9,2.4-1.9,3.4-3c0,0.4,0,0.8,0,1.3
			c0,6.4,2.3,11.9,6.8,16.5c4.5,4.6,9.9,6.8,16.2,6.8l9.1,0c3.9,0,7.1-1.4,9.8-4.1c2.7-2.7,4-6,4-10C142,93.6,141.5,91.4,140.5,89.3
			"/>
		<path id="XMLID_25_" class="st9" d="M119.1,81.9c1.3,0,2.3,0.5,3.2,1.4c0.9,0.9,1.4,2,1.4,3.4c0,1.3-0.4,2.4-1.3,3.3
			c-0.9,0.9-2,1.4-3.2,1.4c-1.3,0-2.4-0.5-3.3-1.4c-0.9-0.9-1.3-2-1.4-3.3c0-1.3,0.5-2.5,1.3-3.4C116.7,82.3,117.8,81.9,119.1,81.9"
			/>
		<path id="XMLID_24_" class="st10" d="M193.9,85.8c-4-4-9.1-6.2-14.8-6.2h-3c-2.3,0-4.5,0.3-6.6,0.8c-0.2-0.2-0.4-0.5-0.6-0.7
			c-4-4-9.1-6.2-14.8-6.2c-0.3,0-0.7,0-1,0c-1.3-5-3.9-9.5-7.7-13.4v0l0,0v0c-0.5-0.5-1-1-1.6-1.5c-0.1-0.6-0.2-1.1-0.3-1.6
			c0,0,0,0,0,0c-1-3.8-2.9-7.1-5.5-9.8c-4.2-4.4-9.7-6.6-15.7-6.6h0h0c-5.8,0-11.1,2.3-15.3,6.5v0L99.8,54c0,0-0.1,0.1-0.2,0.2
			c-4-2.7-8.5-4.2-13.4-4.4c-1.5-1.8-3.2-3.4-5.1-4.7l0,0v0l0,0l0,0v0c-4.6-3.3-9.7-4.9-15.2-4.9c-7.3,0-13.6,2.6-18.7,7.8
			c-0.7,0.7-1.4,1.5-2,2.2c-1.5-0.2-2.9-0.4-4.3-0.4h-4.8c-9.8,0-18.4,3.6-25.4,10.6c-7,7-10.6,15.6-10.6,25.5v9.6
			c0,7.3,2.6,13.7,7.7,18.8c5.1,5.1,11.4,7.7,18.7,7.7c7.3,0,13.5-2.6,18.6-7.7c1.3-1.3,2.5-2.8,3.5-4.3c0.5,0.5,1,1.1,1.5,1.6
			c7.1,6.9,15.6,10.5,25.3,10.5h4.8c6.9,0,12.9-2.4,17.9-7.1c6.1,4.7,13.1,7.1,21,7.1c0,0,5.8,0,8.2,0c0.7,4.3,2.7,8.3,5.8,11.5
			c0.6,0.7,1.7,2,2.9,2.8c10,6.9,25.5,1.9,29.5-3.5c7.2,1.9,16.2-1.9,19.3-5.2c2.7-3,4.3-5.7,5.3-9.1c1.4-0.9,2.6-1.8,3.7-2.9
			c4-4,6.1-9.2,6.1-14.9C200,95,197.9,89.9,193.9,85.8"/>
		<path id="XMLID_23_" class="st11" d="M191.1,88.6c-3.3-3.3-7.4-5-12-5h-3c-2.8,0-5.5,0.5-8,1.4c-0.6-0.9-1.3-1.7-2-2.4
			c-3.3-3.3-7.4-5-12-5c-1.4,0-2.8,0.2-4.2,0.5c-0.7-5.7-3.2-10.8-7.4-15.1l0,0c-0.7-0.8-1.6-1.5-2.5-2.2c-0.1-0.9-0.2-1.8-0.4-2.6
			c-0.8-3.1-2.4-5.9-4.5-8.1c-3.5-3.6-8-5.4-12.9-5.4c-4.9,0-9.1,1.8-12.6,5.4l0,0c-0.1,0.1-0.2,0.2-0.3,0.3l-0.8,0.8l-2.3,2.3
			l-3.4,3.3l0,0l-0.1,0.1c-0.8,0.9-1.5,1.9-2.1,2.9c-4.3-4-9.4-6.1-15.3-6.1h-0.9c-1.5-2.1-3.3-3.9-5.4-5.4
			c-3.9-2.8-8.2-4.2-12.9-4.2c-6.2,0-11.5,2.2-15.9,6.6c-1.2,1.2-2.2,2.5-3.1,3.9c-2-0.5-4-0.8-6-0.8h-4.8c-8.7,0-16.3,3.2-22.6,9.4
			c-6.2,6.3-9.4,13.9-9.4,22.7v9.6c0,6.3,2.2,11.6,6.5,16c4.3,4.3,9.7,6.5,15.9,6.5c6.2,0,11.5-2.2,15.8-6.5
			c2.6-2.7,4.5-5.7,5.5-9.1c1.4,2.3,3,4.4,5,6.3c6.3,6.2,13.9,9.3,22.5,9.3h4.8c6.1,0,11.5-2.2,15.8-6.6c0.6-0.6,1.2-1.3,1.7-1.9
			c5.9,5.7,13.1,8.6,21.3,8.6l9.1,0c0.9,0,1.8-0.1,2.7-0.2c0,0.3,0,0.6,0,0.9c0,4.6,1.7,8.7,5,12c3.3,3.3,7.4,5,12,5
			c6.3,0,11.8-2.3,16.2-6.7l0,0l0,0l0,0c0,0,0.1-0.1,0.1-0.1c1.8,0.6,3.7,1,5.7,1c4.6,0,8.8-1.7,12-5c2.4-2.4,4-5.5,4.7-8.9
			c1.6-0.8,3-1.8,4.3-3.1c3.3-3.3,5-7.5,5-12.1C196.1,96.1,194.4,91.9,191.1,88.6"/>
		<path id="XMLID_22_" class="st12" d="M188,91.7c-2.5-2.5-5.5-3.7-9-3.7h-3c-3.7,0-7,1-9.9,2.9c-0.6-1.9-1.6-3.7-3.2-5.2
			c-2.5-2.5-5.5-3.7-9-3.7c-3.3,0-6.1,1.1-8.5,3.3c0.2-1.1,0.3-2.3,0.3-3.4v-0.1c0-6.1-2.2-11.4-6.4-15.7c0,0,0,0,0,0
			c-1.1-1.1-2.3-2.2-3.6-3.1c0-0.1,0-0.6,0-0.6c0-1.1-0.1-2.2-0.4-3.2c-0.6-2.4-1.8-4.5-3.4-6.1c-2.7-2.7-6-4.1-9.8-4.1l0,0h0
			c-3.7,0-6.9,1.4-9.6,4.1h0l-6.7,6.6l-0.1,0.1c-1.3,1.4-2.2,3.1-2.5,5c-0.9,0.7-1.7,1.4-2.5,2.2c-0.8-1.3-1.7-2.5-2.8-3.6
			c-3.5-3.6-7.8-5.3-12.8-5.3h-3.2c-1.3-2.5-3.2-4.6-5.5-6.2c-3.2-2.3-6.6-3.4-10.4-3.4c-5,0-9.3,1.8-12.8,5.4
			c-1.8,1.8-3.2,3.9-4.1,6.2c-2.5-1.3-5.2-1.9-8.1-1.9h-4.8c-7.6,0-14.1,2.7-19.5,8.2c-5.4,5.4-8.1,12-8.1,19.7v9.6
			c0,5.1,1.8,9.4,5.2,12.9c3.5,3.5,7.8,5.3,12.8,5.3c5,0,9.3-1.8,12.8-5.3c3.5-3.5,5.3-7.9,5.3-12.9V94c1.4-0.3,2.7-0.7,4-1.3
			c1.2,4.9,3.6,9.2,7.3,12.9c5.5,5.4,12,8.1,19.5,8.1h4.8c4.9,0,9.2-1.8,12.8-5.3c1.9-1.9,3.3-4,4.1-6.3c0.9,1.3,1.9,2.6,3.1,3.7
			c5.2,5.3,11.6,8,18.9,7.9l9.1,0c3.8,0,7.1-1.1,10-3.1c-0.2,0.2-0.4,0.5-0.6,0.7c-1.6,2.2-2.3,4.7-2.3,7.5c0,3.4,1.2,6.4,3.7,8.9
			c2.5,2.5,5.5,3.7,8.9,3.7c5.1,0,9.6-1.8,13.2-5.5c0.7-0.7,1.4-1.6,2-2.4c2,1.3,4.3,2,6.9,2c3.5,0,6.5-1.2,8.9-3.7
			c2.4-2.4,3.7-5.4,3.7-8.8c2-0.6,3.7-1.6,5.3-3.2c2.5-2.5,3.7-5.5,3.7-9C191.7,97.2,190.5,94.2,188,91.7"/>
		<path id="XMLID_21_" class="st10" d="M114.4,66.9c0,0,0.1,0.1,0.1,0.1s7.6-0.4,7.7-0.4c1.6,0,2.9-0.7,3.7-2.2l0,0l0,0
			c0.8-1.8,0.6-3.4-0.7-4.7c-0.8-0.8-1.7-1.2-2.7-1.2c-1.1-0.1-2.1,0.3-2.9,1l0,0l-5.7,5.5l0,0.1c-0.2,0.2-0.3,0.5-0.3,0.7
			c0,0.3,0.1,0.6,0.4,0.8C114.1,66.8,114.2,66.9,114.4,66.9"/>
		<path id="XMLID_20_" class="st10" d="M41,70.6h-4.8c-4.1,0-7.8,1.5-10.7,4.5c-3,3-4.5,6.6-4.5,10.8v9.6c0,1.6,0.6,2.9,1.7,4
			c1.1,1.1,2.5,1.7,4,1.7c1.5,0,2.9-0.6,4-1.7c1.1-1.1,1.6-2.5,1.6-4v-9.6c0-1.1,0.4-2.1,1.1-2.9c0.8-0.8,1.7-1.2,2.8-1.2H41
			c1.5,0,2.9-0.6,4-1.7c1.1-1.1,1.6-2.4,1.6-4c0-1.5-0.6-2.9-1.6-4C43.8,71.2,42.5,70.6,41,70.6"/>
		<path id="XMLID_19_" class="st10" d="M85.1,70.6H71.6v-4c0-1.5-0.5-2.9-1.6-4c-1.1-1.1-2.4-1.7-4-1.7c-1.5,0-2.9,0.6-4,1.6
			c-1.1,1.1-1.7,2.4-1.7,4v18.6h0c0,0,0,0.8,0,0.9v0l0,0c0.1,4.1,1.6,7.7,4.6,10.7c2.9,2.9,6.5,4.4,10.7,4.4h4.8
			c1.5,0,2.9-0.6,4-1.7c1.1-1.1,1.6-2.5,1.6-4c0-1.5-0.6-2.9-1.6-4c-1.1-1.1-2.4-1.7-4-1.7h-4h-0.8c-2.5-0.2-3.7-1.3-3.9-3.8v-4.1
			h13.5c1.5,0,2.9-0.6,4-1.7c1.1-1.1,1.7-2.4,1.7-4c0-1.5-0.6-2.9-1.7-4C88,71.2,86.6,70.6,85.1,70.6"/>
		<path id="XMLID_18_" class="st10" d="M133.8,96.4v-0.8c0,0,0-0.1-0.1-0.1c0,0,0-0.7,0-0.7s0,0-0.1-0.1v-0.5c0,0-0.1,0-0.1-0.1
			c0-0.1,0-0.2,0-0.2s-0.1-0.1-0.1-0.2v-0.1l-0.3-0.3c-0.5-1-1.3-1.8-2.3-2.3c0,0-0.3-0.3-0.3-0.3h-0.1c-0.1-0.1-0.1-0.1-0.1-0.1
			h-0.4c-0.1,0-0.1,0-0.2,0c-0.1,0-0.2-0.1-0.3-0.1c2.2-1.4,3.6-3.5,4.2-6.5c0-0.1,0.1-0.1,0.1-0.1s0-0.6,0-0.6
			c0-0.1,0.1-0.3,0.1-0.4v-0.2c0,0,0-0.2,0-0.2l0.1-0.6c0-2.8-1-5.2-2.9-7.2c-1.9-2-4.3-3-7.1-3l-4.6,0c-4,0-7.4,1.5-10.3,4.4
			c-2.9,2.9-4.3,6.5-4.3,10.5c0,4.1,1.5,7.6,4.3,10.5c2.9,2.9,6.3,4.4,10.3,4.4l9.1,0c1.8,0,3.3-0.8,4.3-2.2c0.2,0,0.5,0,0.5,0v-0.1
			h0.1v-0.2h0.1c0,0,0-0.2,0-0.4h0.1v-0.6c0,0,0,0,0,0h0.2c0,0,0-0.7,0-0.8c0,0,0.1-0.1,0.1-0.1v-0.4L133.8,96.4
			C133.7,96.4,133.8,96.4,133.8,96.4"/>
		<path id="XMLID_17_" class="st9" d="M185.4,94.3c-1.8-1.8-3.9-2.7-6.3-2.7h-3c-4.1,0-7.6,1.5-10.5,4.4c-1.4,1.4-2.4,2.9-3.2,4.5
			c-0.2-0.5-0.4-0.9-0.6-1.4c0.8-1.5,1.2-3,1.2-4.6c0-2.5-0.9-4.6-2.6-6.3c-1.8-1.8-3.9-2.7-6.3-2.7c-2.5,0-4.6,0.9-6.4,2.7
			c-1.7,1.7-2.6,3.9-2.6,6.3c0,1.7,0.4,3.2,1.3,4.6c-0.9,1.4-1.3,2.9-1.3,4.6v6.3c-1.7,0.6-3.1,1.7-4.2,3.2
			c-1.1,1.5-1.7,3.3-1.7,5.3c0,2.4,0.9,4.5,2.6,6.3c1.8,1.8,3.9,2.7,6.3,2.7c4.1,0,7.7-1.5,10.6-4.4c1.8-1.8,3-3.7,3.7-6
			c0.4,0.7,0.9,1.3,1.4,1.8c1.7,1.7,3.9,2.6,6.4,2.6c2.5,0,4.6-0.9,6.3-2.6c1.8-1.8,2.6-3.9,2.6-6.4v-3c2.5,0,4.6-0.9,6.3-2.6
			c1.8-1.8,2.7-3.9,2.7-6.4C188,98.2,187.1,96.1,185.4,94.3"/>
		<path id="XMLID_16_" class="st13" d="M151,112.7c0,1.5-0.7,2.5-2.2,2.9c-0.2,0.1-0.5,0.1-0.9,0.1c-0.8,0-1.4,0.3-2.1,0.9
			c-0.6,0.6-0.9,1.3-0.9,2.1c0,0.8,0.3,1.5,0.9,2.1c0.6,0.6,1.3,0.9,2.1,0.9c2.4,0,4.5-0.9,6.2-2.6c1.8-1.7,2.7-3.8,2.7-6.2v-9
			c0-0.9-0.3-1.6-0.9-2.2c-0.6-0.6-1.3-0.9-2.1-0.9c-0.8,0-1.5,0.3-2.1,0.9c-0.6,0.6-0.9,1.3-0.9,2.1V112.7z"/>
		<path id="XMLID_15_" class="st14" d="M173.1,106.7c0-0.9,0.3-1.6,0.9-2.2c0.6-0.6,1.3-0.9,2.1-0.9h3c0.8,0,1.5-0.3,2.1-0.9
			c0.6-0.6,0.9-1.3,0.9-2.1c0-0.8-0.3-1.5-0.9-2.1c-0.6-0.6-1.3-0.9-2.1-0.9h-3c-2.5,0-4.6,0.9-6.3,2.7c-1.8,1.8-2.6,3.9-2.6,6.4v6
			c0,0.8,0.3,1.5,0.9,2.1c0.6,0.6,1.3,0.9,2.1,0.9c0.8,0,1.5-0.3,2.1-0.9c0.6-0.6,0.9-1.3,0.9-2.1V106.7z"/>
	</g>
	<polygon id="XMLID_13_" class="st15" points="157.7,99.5 154.2,97.6 150.6,99.5 151.3,95.5 148.5,92.7 152.5,92.1 154.3,88.5 
		156,92.2 160,92.8 157.1,95.6 	"/>
	<g id="XMLID_65_">
		<defs>
			<rect id="XMLID_1_" x="0.2" y="40.1" width="199.8" height="122.6"/>
		</defs>
		<clipPath id="XMLID_69_">
			<use xlink:href="#XMLID_1_"  style="overflow:visible;"/>
		</clipPath>
		<path id="XMLID_74_" class="st16" d="M128.5,91.2c2.4,0,4.3,2.1,4.3,4.7c0,2.6-1.9,4.7-4.3,4.7l-9.4,0c-3.8,0-7-1.4-9.7-4.1
			c-2.7-2.8-4.1-6-4.1-9.9c0-3.8,1.3-7.1,4-9.9c2.7-2.8,5.9-4.1,9.7-4.2l4.6,0c2.5,0,4.7,0.9,6.5,2.7c1.8,1.8,2.7,4,2.7,6.6
			c0,1-0.2,1.9-0.2,1.9c-0.8,4.1-3.2,6.5-7.4,7.3c0,0-0.3,0.1-0.4,0.1l-0.5,0.1H128.5z M114.4,65.5c0.9-0.9,1.9-1.8,2.8-2.7
			c0.9-0.9,1.9-1.8,2.8-2.7c0.6-0.6,1.4-0.8,2.3-0.8c0.9,0,1.6,0.4,2.2,1c1,1.1,1.2,2.3,0.6,3.8c-0.6,1.2-1.6,1.8-3,1.8l-7.3,0.3
			c0,0-0.1,0-0.1,0c-0.1,0-0.2,0-0.2-0.1C114.3,65.9,114.3,65.7,114.4,65.5 M88.5,79.6c-0.9,0.9-2,1.4-3.4,1.4H70.7v5
			c0.2,3,1.8,4.5,4.8,4.5l4.8,0.2c1.3,0,2.4,0.5,3.4,1.4c0.9,0.9,1.4,2.1,1.4,3.4c0,1.3-0.5,2.5-1.4,3.4c-0.9,1-2.1,1.4-3.4,1.4
			h-4.8c-3.9,0-7.3-1.4-10.1-4.2c-2.8-2.8-4.2-6.2-4.3-10.1v-0.2V66.6c0-1.3,0.5-2.4,1.4-3.4c1-0.9,2.1-1.4,3.4-1.4
			c1.3,0,2.4,0.5,3.4,1.4c0.9,0.9,1.4,2.1,1.4,3.4v4.9h14.4c1.3,0,2.4,0.5,3.4,1.4c0.9,0.9,1.4,2.1,1.4,3.4
			C89.9,77.6,89.4,78.7,88.5,79.6 M44.3,79.6C43.4,80.6,42.3,81,41,81h-4.8c-1.3,0-2.4,0.5-3.4,1.4c-0.9,0.9-1.4,2.1-1.4,3.5v9.6
			c0,1.3-0.5,2.5-1.4,3.4c-0.9,1-2.1,1.4-3.4,1.4c-1.3,0-2.4-0.5-3.4-1.4c-1-1-1.4-2.1-1.4-3.4v-9.6c0-4,1.4-7.3,4.2-10.2
			c2.8-2.8,6.2-4.3,10.1-4.3H41c1.3,0,2.4,0.5,3.4,1.4c0.9,0.9,1.4,2.1,1.4,3.4C45.7,77.6,45.3,78.7,44.3,79.6 M140.5,89.3
			c1-2.4,1.5-4.9,1.5-7.5c0-5.1-1.8-9.5-5.4-13.1c-1.5-1.6-3.2-2.8-5-3.7c0.4-1.6,0.4-3.2,0-4.8c-0.5-1.8-1.3-3.2-2.5-4.5
			c-1.9-2-4.3-3-7.1-2.9c-2.7,0-5.1,1-7,3.1l-6.6,6.5l0,0c-1,1.1-1.5,2.3-1.6,3.7c0,0.2,0,0.5,0,0.7c-1.4,0.9-2.7,2-3.9,3.3
			c-1.4,1.4-2.5,2.9-3.5,4.5c-0.3-3.3-1.7-6.1-4.1-8.5c-2.8-2.8-6.2-4.3-10.2-4.3h-5.6c-1-2.8-2.8-5.1-5.3-6.9
			c-2.5-1.8-5.3-2.7-8.3-2.7c-4,0-7.4,1.4-10.2,4.3c-2.8,2.8-4.1,6.2-4.2,10.1c-0.2-0.2-0.3-0.3-0.5-0.5c-2.8-2.8-6.2-4.3-10.1-4.3
			h-4.8c-6.6,0-12.2,2.4-16.9,7.1c-4.7,4.7-7,10.4-7,17v9.6c0,4.1,1.4,7.5,4.2,10.3c2.8,2.8,6.2,4.2,10.2,4.2c4,0,7.4-1.4,10.2-4.2
			c2.8-2.8,4.2-6.3,4.2-10.3v-4.8c4,0,7.4-1.4,10.1-4.2c0.2-0.2,0.3-0.3,0.5-0.5v0c0,6.6,2.4,12.3,7,16.9c4.7,4.7,10.4,7,16.9,7h4.8
			c3.9,0,7.3-1.4,10.1-4.3c2.8-2.8,4.2-6.2,4.2-10.2c0-2.5-0.6-4.9-1.9-7.1c1.3-0.8,2.4-1.9,3.4-3c0,0.4,0,0.8,0,1.3
			c0,6.4,2.3,11.9,6.8,16.5c4.5,4.6,9.9,6.8,16.2,6.8l9.1,0c3.9,0,7.1-1.4,9.8-4.1c2.6-2.7,4-6,4-10C142,93.6,141.5,91.4,140.5,89.3
			"/>
		<path id="XMLID_68_" class="st17" d="M128.5,91.2c2.4,0,4.3,2.1,4.3,4.7c0,2.6-1.9,4.7-4.3,4.7l-9.4,0c-3.8,0-7-1.4-9.7-4.1
			c-2.7-2.8-4.1-6-4.1-9.9c0-3.8,1.3-7.1,4-9.9c2.7-2.8,5.9-4.1,9.7-4.2l4.6,0c2.5,0,4.7,0.9,6.5,2.7c1.8,1.8,2.7,4,2.7,6.6
			c0,1-0.2,1.9-0.2,1.9c-0.8,4.1-3.2,6.5-7.4,7.3c0,0-0.3,0.1-0.4,0.1l-0.5,0.1H128.5z M114.4,65.5c0.9-0.9,1.9-1.8,2.8-2.7
			c0.9-0.9,1.9-1.8,2.8-2.7c0.6-0.6,1.4-0.8,2.3-0.8c0.9,0,1.6,0.4,2.2,1c1,1.1,1.2,2.3,0.6,3.8c-0.6,1.2-1.6,1.8-3,1.8l-7.3,0.3
			c0,0-0.1,0-0.1,0c-0.1,0-0.2,0-0.2-0.1C114.3,65.9,114.3,65.7,114.4,65.5z M88.5,79.6c-0.9,0.9-2,1.4-3.4,1.4H70.7v5
			c0.2,3,1.8,4.5,4.8,4.5l4.8,0.2c1.3,0,2.4,0.5,3.4,1.4c0.9,0.9,1.4,2.1,1.4,3.4c0,1.3-0.5,2.5-1.4,3.4c-0.9,1-2.1,1.4-3.4,1.4
			h-4.8c-3.9,0-7.3-1.4-10.1-4.2c-2.8-2.8-4.2-6.2-4.3-10.1v-0.2V66.6c0-1.3,0.5-2.4,1.4-3.4c1-0.9,2.1-1.4,3.4-1.4
			c1.3,0,2.4,0.5,3.4,1.4c0.9,0.9,1.4,2.1,1.4,3.4v4.9h14.4c1.3,0,2.4,0.5,3.4,1.4c0.9,0.9,1.4,2.1,1.4,3.4
			C89.9,77.6,89.4,78.7,88.5,79.6z M44.3,79.6C43.4,80.6,42.3,81,41,81h-4.8c-1.3,0-2.4,0.5-3.4,1.4c-0.9,0.9-1.4,2.1-1.4,3.5v9.6
			c0,1.3-0.5,2.5-1.4,3.4c-0.9,1-2.1,1.4-3.4,1.4c-1.3,0-2.4-0.5-3.4-1.4c-1-1-1.4-2.1-1.4-3.4v-9.6c0-4,1.4-7.3,4.2-10.2
			c2.8-2.8,6.2-4.3,10.1-4.3H41c1.3,0,2.4,0.5,3.4,1.4c0.9,0.9,1.4,2.1,1.4,3.4C45.7,77.6,45.3,78.7,44.3,79.6z M140.5,89.3
			c1-2.4,1.5-4.9,1.5-7.5c0-5.1-1.8-9.5-5.4-13.1c-1.5-1.6-3.2-2.8-5-3.7c0.4-1.6,0.4-3.2,0-4.8c-0.5-1.8-1.3-3.2-2.5-4.5
			c-1.9-2-4.3-3-7.1-2.9c-2.7,0-5.1,1-7,3.1l-6.6,6.5l0,0c-1,1.1-1.5,2.3-1.6,3.7c0,0.2,0,0.5,0,0.7c-1.4,0.9-2.7,2-3.9,3.3
			c-1.4,1.4-2.5,2.9-3.5,4.5c-0.3-3.3-1.7-6.1-4.1-8.5c-2.8-2.8-6.2-4.3-10.2-4.3h-5.6c-1-2.8-2.8-5.1-5.3-6.9
			c-2.5-1.8-5.3-2.7-8.3-2.7c-4,0-7.4,1.4-10.2,4.3c-2.8,2.8-4.1,6.2-4.2,10.1c-0.2-0.2-0.3-0.3-0.5-0.5c-2.8-2.8-6.2-4.3-10.1-4.3
			h-4.8c-6.6,0-12.2,2.4-16.9,7.1c-4.7,4.7-7,10.4-7,17v9.6c0,4.1,1.4,7.5,4.2,10.3c2.8,2.8,6.2,4.2,10.2,4.2c4,0,7.4-1.4,10.2-4.2
			c2.8-2.8,4.2-6.3,4.2-10.3v-4.8c4,0,7.4-1.4,10.1-4.2c0.2-0.2,0.3-0.3,0.5-0.5v0c0,6.6,2.4,12.3,7,16.9c4.7,4.7,10.4,7,16.9,7h4.8
			c3.9,0,7.3-1.4,10.1-4.3c2.8-2.8,4.2-6.2,4.2-10.2c0-2.5-0.6-4.9-1.9-7.1c1.3-0.8,2.4-1.9,3.4-3c0,0.4,0,0.8,0,1.3
			c0,6.4,2.3,11.9,6.8,16.5c4.5,4.6,9.9,6.8,16.2,6.8l9.1,0c3.9,0,7.1-1.4,9.8-4.1c2.6-2.7,4-6,4-10C142,93.6,141.5,91.4,140.5,89.3
			z"/>
		<path id="XMLID_2_" class="st16" d="M119.1,81.9c1.3,0,2.3,0.5,3.2,1.4c0.9,0.9,1.4,2,1.4,3.4c0,1.3-0.4,2.4-1.3,3.3
			c-0.9,0.9-2,1.4-3.2,1.4c-1.3,0-2.4-0.5-3.3-1.4c-0.9-0.9-1.3-2-1.4-3.3c0-1.3,0.5-2.5,1.3-3.4C116.7,82.3,117.8,81.9,119.1,81.9"
			/>
	</g>
</g>
</svg>
