<?xml version="1.0" encoding="utf-8"?>
<!-- Generator: Adobe Illustrator 19.0.0, SVG Export Plug-In . SVG Version: 6.00 Build 0)  -->
<!DOCTYPE svg PUBLIC "-//W3C//DTD SVG 1.1//EN" "http://www.w3.org/Graphics/SVG/1.1/DTD/svg11.dtd" [
	<!ENTITY ns_extend "http://ns.adobe.com/Extensibility/1.0/">
	<!ENTITY ns_ai "http://ns.adobe.com/AdobeIllustrator/10.0/">
	<!ENTITY ns_graphs "http://ns.adobe.com/Graphs/1.0/">
	<!ENTITY ns_vars "http://ns.adobe.com/Variables/1.0/">
	<!ENTITY ns_imrep "http://ns.adobe.com/ImageReplacement/1.0/">
	<!ENTITY ns_sfw "http://ns.adobe.com/SaveForWeb/1.0/">
	<!ENTITY ns_custom "http://ns.adobe.com/GenericCustomNamespace/1.0/">
	<!ENTITY ns_adobe_xpath "http://ns.adobe.com/XPath/1.0/">
]>
<svg version="1.1" id="Layer_1" xmlns:x="&ns_extend;" xmlns:i="&ns_ai;" xmlns:graph="&ns_graphs;"
	 xmlns="http://www.w3.org/2000/svg" xmlns:xlink="http://www.w3.org/1999/xlink" x="0px" y="0px" viewBox="0 0 200 200"
	 style="enable-background:new 0 0 200 200;" xml:space="preserve">
<style type="text/css">
	.st0{fill:#FFFFFF;}
</style>
<metadata>
	<sfw  xmlns="&ns_sfw;">
		<slices></slices>
		<sliceSourceBounds  width="197.3" height="127" y="-163.1" x="0.8" bottomLeftOrigin="true"></sliceSourceBounds>
	</sfw>
</metadata>
<g>
	<path id="XMLID_13_" class="st0" d="M134.1,75.4c-6.5,0-12.1-4.7-13.1-11.3h12.4c1.4,0,4.4,0.3,4.4,0.3v-5.5c0,0-2.9,0.2-4.6,0.2
		H121c1.2-6.5,6.6-11,13.1-11c3.4,0,7.6,1.6,7.6,1.6l0.1-5.8c0,0-3-1.1-7.7-1.1c-10.9,0-20.4,8.3-20.4,18.9
		c0,11.5,9.5,19.2,20.4,19.2c5.1,0,8.2-1.4,8.2-1.4l-0.1-6C142.1,73.6,138.3,75.4,134.1,75.4"/>
	<path id="XMLID_12_" class="st0" d="M97,80.8c0,0,0.4-2.8,0.4-5.2V49.3h-1.8c-2.4,0-6.2,0-9,0.3l-0.2-6.1h28.9l-0.1,6.1
		c-2.9-0.3-6.6-0.3-9.1-0.3h-2.2v26.4c0,2.4,0.5,5.2,0.5,5.2H97z"/>
	<path id="XMLID_11_" class="st0" d="M141.8,40.3c-2.1-0.6-4.9-1-7.3-1c-6.4,0-11.8,1.9-16.4,6l0.1-4.5c4.8-3.3,10.3-4.8,16.3-4.8
		c2.6,0,4.9,0.3,7.3,1L141.8,40.3z"/>
	<path class="st0" d="M84,75.7L73.9,66c6.2-0.6,11.4-5.1,11.4-11c0-6.3-3.6-11.9-14.4-12.3c-0.5,0-0.9,0-1.4,0
		C62,42.6,56.9,43,56.9,43s0.3,3.7,0.3,5.5v27.2c0,2.5-0.5,5.1-0.5,5.1h7.5c0,0-0.5-2.6-0.5-5.6v-11l7.1,7.4l3.6,3.7
		c2.2,2.4,6.1,5.5,6.1,5.5h10C90.5,80.8,86.1,77.7,84,75.7 M69.2,61.6h-5.4V48c0,0,2.6-0.1,5.8-0.1c0.5,0,0.9,0,1.3,0.1
		c5,0.4,7.1,3.1,7.1,6.4c0,3.7-2.9,6.5-7.1,7.1C70.4,61.5,69.8,61.6,69.2,61.6"/>
	<path id="XMLID_8_" class="st0" d="M5.7,97.3v-0.8c0-1.5-0.1-2.6-0.3-3.1c-0.2-0.6-0.6-1-1.1-1.4c-0.4-0.2-0.9-0.4-1.7-0.5H2.5
		c-0.7,0-1.1-0.1-1.4-0.3c-0.2-0.2-0.3-0.5-0.3-0.9c0-0.5,0.1-0.9,0.4-1.2c0.3-0.3,1-0.5,2.2-0.7c0.6,0,1.2-0.2,1.8-0.3
		c0.6-0.1,1.3-0.4,2-0.6c1.1-0.4,2.4-1,3.8-1.7c1.4-0.7,2.2-1.1,2.6-1.1c0.3,0,0.6,0.1,0.8,0.4c0.2,0.3,0.3,0.6,0.3,1.1
		c0,0-0.1,1.5-0.2,4.3c-0.2,2.9-0.2,5.7-0.2,8.6v34.9c0,2.1,0.1,3.5,0.4,4.3c0.3,0.7,0.7,1.4,1.4,1.9c0.5,0.4,1.2,0.7,2.2,1.1
		c0.1,0,0.2,0,0.2,0c0.7,0.2,1.2,0.4,1.3,0.6c0.2,0.2,0.3,0.5,0.3,0.8c0,0.5-0.1,0.9-0.4,1.1c-0.3,0.3-0.7,0.4-1.3,0.4
		c-0.3,0-1.2-0.1-2.8-0.3c-1.6-0.2-3.1-0.3-4.4-0.3c-2.5,0-4.9,0.2-7.4,0.6c-0.4,0-0.7,0.1-0.8,0.1c-0.4,0-0.8-0.1-1.1-0.4
		c-0.3-0.2-0.4-0.5-0.4-0.8c0-0.5,0.4-1,1.3-1.6l0.1-0.1h0c2-1.2,3-3,3-5.4v-1.4V97.3z"/>
	<path id="XMLID_7_" class="st0" d="M36.8,142.3l-12.6-25.1c-0.9-1.9-1.9-3.2-3.1-4c-1.2-0.8-1.8-1.4-1.8-1.6c0-0.4,0.2-0.7,0.5-1
		c0.3-0.2,0.7-0.4,1.2-0.4c0.1,0,0.3,0,0.7,0.1c0.2,0,0.3,0.1,0.5,0.1c0.7,0.1,1.5,0.2,2.4,0.3c0.9,0,1.9,0.1,2.9,0.1
		c1.2,0,2.4,0,3.5-0.1c1.1-0.1,2.1-0.1,2.9-0.3c0.2,0,0.4,0,0.6-0.1c0.5-0.1,0.8-0.1,0.9-0.1c0.6,0,1.1,0.1,1.4,0.3
		c0.3,0.2,0.4,0.5,0.4,1c0,0.6-0.7,1.1-2,1.6c-0.1,0-0.1,0-0.2,0.1c-0.9,0.3-1.5,0.5-1.8,0.8c-0.3,0.3-0.4,0.6-0.4,1
		c0,0.5,0.1,0.9,0.1,1.4c0.1,0.5,0.2,0.8,0.4,1.2l7.1,13.9c0.4,0.7,0.7,1.2,0.9,1.5c0.2,0.2,0.4,0.4,0.6,0.4c0.2,0,0.5-0.2,0.8-0.7
		c0.4-0.5,0.7-0.9,0.8-1.4l3.8-10.1c0.3-0.7,0.5-1.5,0.7-2.2c0.2-0.7,0.2-1.4,0.2-2.1c0-0.9-0.1-1.6-0.4-2.2
		c-0.3-0.5-0.7-0.9-1.3-1.2c-0.3-0.1-0.7-0.2-1.4-0.3c-1.3-0.2-1.9-0.6-1.9-1.2c0-0.6,0.1-0.9,0.4-1.1c0.3-0.2,0.9-0.3,1.9-0.3
		c0.3,0,0.6,0,0.9,0c0.3,0,0.8,0,1.4,0.1c0.1,0,0.5,0,1.2,0.1c0.6,0.1,1.1,0.1,1.5,0.1c0.4,0,0.9,0,1.3-0.1c0.5-0.1,1-0.1,1.6-0.3
		c0.2,0,0.4,0,0.7,0c0.3,0,0.5,0,0.6,0c0.6,0,1,0.1,1.3,0.3c0.3,0.2,0.5,0.5,0.5,0.9c0,0.3-0.5,0.8-1.5,1.5c-1,0.7-1.9,1.9-2.6,3.7
		L33.9,161c-0.3,0.8-0.8,1.4-1.4,1.7c-0.6,0.3-1.5,0.5-2.8,0.5c-0.8,0-1.3-0.1-1.6-0.2c-0.3-0.1-0.4-0.4-0.4-0.7
		c0-0.4,0.2-1,0.6-1.6c0.2-0.2,0.3-0.4,0.4-0.5l8.1-13.2c0.2-0.4,0.4-0.8,0.5-1.2c0.1-0.4,0.2-0.8,0.2-1.1c0-0.3,0-0.7-0.2-1
		C37.2,143.1,37,142.7,36.8,142.3"/>
	<path id="XMLID_6_" class="st0" d="M63.6,134.7v-14.1c0-1.9-0.1-3.1-0.3-3.8c-0.2-0.6-0.6-1.1-1.2-1.4c-0.4-0.2-1.1-0.4-1.9-0.5
		l-0.1,0c-0.8-0.1-1.3-0.2-1.6-0.4c-0.2-0.2-0.3-0.5-0.3-0.9c0-0.5,0.1-0.8,0.4-1c0.3-0.2,0.9-0.4,2.1-0.7c0.2,0,0.5-0.1,0.8-0.2
		c1.4-0.3,2.5-0.6,3.4-0.9c1.3-0.5,2.7-1,4.2-1.7c1.5-0.7,2.3-1,2.5-1c0.2,0,0.4,0.1,0.6,0.3c0.2,0.2,0.3,0.4,0.3,0.5v1.4l-0.2,6.5
		c1.7-2.3,3.2-4.1,4.6-5.4c1.4-1.2,2.6-1.9,3.6-1.9c1.2,0,2.6,0.6,4.1,1.8c1.5,1.2,2.2,2.4,2.2,3.4c0,1-0.5,2.3-1.4,3.9
		c-1,1.7-1.8,2.5-2.5,2.5c-0.4,0-1.3-0.5-2.7-1.7c-1.4-1.1-2.6-1.7-3.7-1.7c-1.5,0-2.5,0.7-3.2,2c-0.7,1.3-1,3.4-1,6.2v7.9
		c0,2,0.1,3.4,0.5,4.2c0.3,0.8,0.8,1.4,1.6,2c0.4,0.3,0.8,0.5,1.3,0.7c0.5,0.2,1,0.3,1.7,0.5c0,0,0.1,0,0.2,0
		c1.1,0.4,1.7,0.9,1.7,1.5c0,0.4-0.2,0.8-0.5,1c-0.4,0.2-0.8,0.4-1.5,0.4c-0.4,0-1.5-0.1-3.3-0.3c-1.8-0.2-3.3-0.3-4.6-0.3
		c-2.6,0-5.1,0.2-7.6,0.6c-0.4,0.1-0.6,0.1-0.7,0.1c-0.4,0-0.8-0.1-1-0.4c-0.3-0.2-0.4-0.5-0.4-1c0-0.3,0.1-0.5,0.2-0.7
		c0.1-0.2,0.5-0.5,1-0.7c1.1-0.6,1.9-1.3,2.3-2.2c0.4-0.8,0.6-1.9,0.6-3.3V134.7z"/>
	<path class="st0" d="M92.3,96.1c0-0.8,0.8-2.2,2.4-4c1.6-1.9,2.6-2.8,3.1-2.8c0.6,0,1.6,0.9,3.1,2.7c1.5,1.8,2.2,3.1,2.2,3.9
		c0,0.9-0.7,2.1-2.2,3.7c-1.5,1.6-2.6,2.5-3.2,2.5c-0.8,0-1.9-0.8-3.3-2.4C93,98.1,92.3,96.9,92.3,96.1 M93.6,134.7v-14.1
		c0-1.9-0.1-3.2-0.3-3.7c-0.2-0.6-0.6-1.1-1.2-1.4c-0.4-0.2-1.1-0.4-1.9-0.5l-0.1,0c-0.8-0.1-1.3-0.2-1.6-0.4
		c-0.2-0.2-0.3-0.5-0.3-0.9c0-0.5,0.1-0.8,0.4-1c0.3-0.2,0.9-0.4,2.1-0.6c0.8-0.1,1.6-0.3,2.2-0.5c0.7-0.2,1.3-0.4,2-0.6
		c1.5-0.5,3-1.1,4.4-1.8c1.4-0.7,2.1-1,2.2-1c0.3,0,0.5,0.1,0.7,0.4c0.2,0.3,0.2,0.7,0.2,1.4c0,0,0,0.2-0.1,0.6
		c-0.1,1.7-0.1,3.5-0.1,5.2v18.5c0,2,0.1,3.4,0.4,4.1c0.3,0.8,0.7,1.5,1.4,2c0.5,0.4,1.2,0.7,2.1,1c0.1,0.1,0.2,0.1,0.3,0.1
		c0,0,0.1,0,0.2,0.1c1,0.3,1.5,0.8,1.5,1.5c0,0.5-0.2,0.8-0.5,1c-0.3,0.2-0.8,0.4-1.3,0.4c-0.3,0-1.2-0.1-2.8-0.3
		c-1.6-0.2-3-0.3-4.3-0.3c-2.6,0-5.1,0.2-7.6,0.6c-0.4,0.1-0.6,0.1-0.7,0.1c-0.4,0-0.8-0.1-1-0.4c-0.3-0.2-0.4-0.5-0.4-1
		c0-0.3,0.1-0.5,0.2-0.7c0.2-0.2,0.5-0.5,1.1-0.7c1.1-0.6,1.9-1.3,2.3-2.2c0.4-0.8,0.6-1.9,0.6-3.3V134.7z"/>
	<path id="XMLID_3_" class="st0" d="M109.8,128.9c0-5.4,1.9-10.1,5.7-13.9c3.8-3.8,8.2-5.7,13.4-5.7c2.9,0,5.4,0.7,7.6,1.9
		c2.1,1.3,3.2,2.6,3.2,4c0,1-0.8,2-2.2,3.2c-1.5,1.2-2.7,1.8-3.5,1.8c-0.6,0-1-0.6-1.3-1.8c-0.2-0.6-0.3-1-0.4-1.4
		c-0.6-1.5-1.4-2.7-2.5-3.4c-1.1-0.7-2.5-1.1-4.1-1.1c-2.6,0-4.5,0.9-5.9,2.7c-1.4,1.7-2,4.3-2,7.7c0,5.1,1.1,9.2,3.3,12.3
		c2.2,3.1,5.1,4.6,8.7,4.6c2.4,0,4.9-0.7,7.3-2.1c2.4-1.4,3.7-2.1,3.9-2.1c0.4,0,0.6,0.1,0.8,0.2c0.1,0.2,0.2,0.5,0.2,0.9
		c0,1.4-1.7,3.2-5.2,5.3c-3.5,2.1-7.3,3.1-11.4,3.1c-4.7,0-8.4-1.5-11.3-4.5C111.2,137.7,109.8,133.8,109.8,128.9"/>
	<path id="XMLID_2_" class="st0" d="M156.2,129.6c0-0.3,0-0.6-0.2-0.7c-0.1-0.1-0.2-0.2-0.5-0.2h-1.8c-0.2,0-0.3,0-0.4-0.1
		c-0.1-0.1-0.2-0.1-0.2-0.2c0-0.6,0.1-1,0.2-1.2c0.1-0.2,0.4-0.3,0.7-0.3h1.4c0.4,0,0.7-0.8,0.7-2.2c0.1-1.5,0.3-2.8,0.8-3.9
		c0.7-1.8,1.9-3.4,3.6-4.8c1.7-1.4,3.2-2.1,4.6-2.1c0.7,0,1.2,0.1,1.7,0.4c0.4,0.3,0.6,0.6,0.6,1c0,0.7-0.2,1.6-0.6,2.5
		c-0.4,0.9-0.8,1.4-1.2,1.4c-0.3,0-0.6-0.4-1-1.3c-0.4-0.9-1-1.3-1.7-1.3c-0.9,0-1.5,0.5-1.9,1.4c-0.4,0.9-0.6,2.5-0.6,4.7v3.7
		c0,0.2,0.1,0.4,0.1,0.4c0.1,0,0.3,0.1,0.6,0.1h1.6c0.4,0,0.8-0.1,1.2-0.4c0.4-0.3,0.6-0.4,0.6-0.4c0.1,0,0.2,0,0.2,0.1
		c0.1,0.1,0.1,0.2,0.1,0.3c0,0.2-0.1,0.4-0.2,0.9c-0.2,0.5-0.3,0.8-0.5,1.1c-0.1,0.1-0.3,0.2-0.5,0.3c-0.2,0.1-0.5,0.1-0.9,0.1h-1.8
		c-0.3,0-0.5,0-0.6,0.1c-0.1,0.1-0.2,0.3-0.2,0.6v9.6c0,1.1,0.1,1.8,0.2,2.2c0.1,0.4,0.4,0.7,0.7,1c0.2,0.2,0.6,0.4,1.1,0.5
		c0.1,0,0.1,0,0.1,0c0.4,0.1,0.6,0.2,0.7,0.3c0.1,0.1,0.2,0.3,0.2,0.4c0,0.3-0.1,0.5-0.2,0.6c-0.1,0.1-0.4,0.2-0.7,0.2
		c-0.1,0-0.6,0-1.5-0.2c-0.8-0.1-1.6-0.2-2.3-0.2c-1.3,0-2.5,0.1-3.7,0.3c-0.2,0-0.3,0-0.4,0c-0.2,0-0.4-0.1-0.5-0.2
		c-0.1-0.1-0.2-0.3-0.2-0.4c0-0.2,0-0.3,0.1-0.4c0.1-0.1,0.3-0.3,0.6-0.4l0.1,0c0.9-0.6,1.4-1.5,1.4-2.7v-0.7V129.6z"/>
	<path id="XMLID_1_" class="st0" d="M168.4,139.3v-7.2c0-1-0.1-1.6-0.2-1.9c-0.1-0.3-0.3-0.6-0.6-0.7c-0.2-0.1-0.5-0.2-1-0.3h0
		c-0.4,0-0.7-0.1-0.8-0.2c-0.1-0.1-0.2-0.2-0.2-0.4c0-0.3,0.1-0.4,0.2-0.5c0.1-0.1,0.5-0.2,1.1-0.3c0.1,0,0.2-0.1,0.4-0.1
		c0.7-0.2,1.3-0.3,1.7-0.5c0.7-0.2,1.4-0.5,2.1-0.9c0.7-0.3,1.2-0.5,1.3-0.5c0.1,0,0.2,0,0.3,0.1c0.1,0.1,0.1,0.2,0.1,0.3v0.7
		l-0.1,2.4c1.1-1,2-1.8,3-2.3c0.9-0.5,1.9-0.7,2.8-0.7c1.1,0,2,0.3,2.8,0.8c0.8,0.6,1.4,1.4,2,2.6c1.3-1.3,2.5-2.2,3.4-2.7
		c1-0.5,1.9-0.8,2.9-0.8c1.9,0,3.2,0.7,4.1,2.1c0.9,1.4,1.4,3.5,1.4,6.3v4.4c0,0.9,0.1,1.6,0.2,2.1c0.2,0.4,0.4,0.8,0.7,1.1
		c0.3,0.2,0.6,0.4,1.1,0.5c0.1,0,0.1,0,0.1,0h0c0.5,0.2,0.8,0.4,0.8,0.7c0,0.3-0.1,0.5-0.2,0.6c-0.2,0.1-0.4,0.2-0.7,0.2
		c-0.2,0-0.6-0.1-1.5-0.2c-0.8-0.1-1.6-0.2-2.2-0.2c-1.3,0-2.5,0.1-3.7,0.3c-0.2,0-0.3,0-0.3,0c-0.2,0-0.4-0.1-0.5-0.2
		c-0.1-0.1-0.2-0.3-0.2-0.5c0-0.3,0.2-0.5,0.6-0.7c0.4-0.3,0.7-0.5,0.8-0.6c0.2-0.2,0.4-0.6,0.5-0.9c0.1-0.4,0.1-0.9,0.1-1.6v-0.4
		v-4.1c0-2.3-0.3-3.9-0.8-4.9c-0.6-1-1.5-1.5-2.7-1.5c-1.1,0-2,0.3-2.5,0.9c-0.6,0.6-0.8,1.5-0.8,2.6v6.6c0,1,0.1,1.7,0.2,2.1
		c0.1,0.4,0.4,0.7,0.7,1c0.2,0.2,0.6,0.4,1.1,0.5c0.1,0,0.1,0,0.1,0h0.1c0.5,0.2,0.8,0.4,0.8,0.7c0,0.3-0.1,0.5-0.2,0.6
		c-0.1,0.1-0.4,0.2-0.7,0.2c-0.2,0-0.6-0.1-1.4-0.2c-0.8-0.1-1.5-0.2-2.1-0.2c-1.3,0-2.5,0.1-3.6,0.3c-0.2,0-0.3,0-0.3,0
		c-0.2,0-0.3-0.1-0.4-0.2c-0.1-0.1-0.2-0.3-0.2-0.5c0-0.1,0-0.3,0.1-0.4c0.1-0.1,0.2-0.2,0.5-0.4c0,0,0.1-0.1,0.1-0.1
		c0.2-0.2,0.4-0.4,0.5-0.5c0.2-0.3,0.3-0.6,0.4-0.9c0.1-0.4,0.1-0.9,0.1-1.5v-0.4v-4.1c0-2.3-0.3-3.9-0.9-4.9
		c-0.6-1-1.5-1.5-2.8-1.5c-1.1,0-1.9,0.3-2.5,0.9c-0.6,0.6-0.8,1.5-0.8,2.6v6.6c0,1,0.1,1.7,0.2,2.1c0.1,0.4,0.4,0.7,0.7,1
		c0.3,0.2,0.7,0.4,1.2,0.5c0.1,0,0.1,0,0.2,0v0c0.6,0.1,0.9,0.4,0.9,0.8c0,0.2-0.1,0.4-0.2,0.5c-0.2,0.1-0.4,0.2-0.7,0.2
		c-0.2,0-0.7-0.1-1.5-0.2c-0.8-0.1-1.6-0.2-2.2-0.2c-1.3,0-2.6,0.1-3.9,0.3c-0.2,0-0.3,0-0.4,0c-0.2,0-0.4-0.1-0.5-0.2
		c-0.1-0.1-0.2-0.3-0.2-0.5c0-0.1,0-0.3,0.1-0.4c0.1-0.1,0.3-0.2,0.5-0.4c0.6-0.3,1-0.7,1.2-1.1c0.2-0.4,0.3-1,0.3-1.7V139.3z"/>
</g>
</svg>
