<?xml version="1.0" encoding="utf-8"?>
<!-- Generator: Adobe Illustrator 19.0.0, SVG Export Plug-In . SVG Version: 6.00 Build 0)  -->
<!DOCTYPE svg PUBLIC "-//W3C//DTD SVG 1.1//EN" "http://www.w3.org/Graphics/SVG/1.1/DTD/svg11.dtd" [
	<!ENTITY ns_extend "http://ns.adobe.com/Extensibility/1.0/">
	<!ENTITY ns_ai "http://ns.adobe.com/AdobeIllustrator/10.0/">
	<!ENTITY ns_graphs "http://ns.adobe.com/Graphs/1.0/">
	<!ENTITY ns_vars "http://ns.adobe.com/Variables/1.0/">
	<!ENTITY ns_imrep "http://ns.adobe.com/ImageReplacement/1.0/">
	<!ENTITY ns_sfw "http://ns.adobe.com/SaveForWeb/1.0/">
	<!ENTITY ns_custom "http://ns.adobe.com/GenericCustomNamespace/1.0/">
	<!ENTITY ns_adobe_xpath "http://ns.adobe.com/XPath/1.0/">
]>
<svg version="1.1" id="Layer_1" xmlns:x="&ns_extend;" xmlns:i="&ns_ai;" xmlns:graph="&ns_graphs;"
	 xmlns="http://www.w3.org/2000/svg" xmlns:xlink="http://www.w3.org/1999/xlink" x="0px" y="0px" viewBox="0 0 200 200"
	 style="enable-background:new 0 0 200 200;" xml:space="preserve">
<style type="text/css">
	.st0{fill:#FFFFFF;}
</style>
<metadata>
	<sfw  xmlns="&ns_sfw;">
		<slices></slices>
		<sliceSourceBounds  width="199.4" height="108.4" y="-153.9" x="-0.1" bottomLeftOrigin="true"></sliceSourceBounds>
	</sfw>
</metadata>
<g>
	<path id="XMLID_12_" class="st0" d="M125.1,74.6c-4.8,0-8.9-3.5-9.6-8.4h9.1c1,0,3.2,0.2,3.2,0.2v-4.1c0,0-2.2,0.2-3.4,0.2h-9
		c0.9-4.8,4.8-8.1,9.6-8.1c2.5,0,5.6,1.2,5.6,1.2l0.1-4.3c0,0-2.2-0.8-5.7-0.8c-8,0-15.1,6.2-15.1,14c0,8.5,7,14.3,15.1,14.3
		c3.8,0,6-1,6-1l-0.1-4.4C131,73.2,128.2,74.6,125.1,74.6"/>
	<path id="XMLID_11_" class="st0" d="M97.7,78.6c0,0,0.3-2.1,0.3-3.9V55.2h-1.3c-1.8,0-4.6,0-6.6,0.2l-0.2-4.5h21.3l-0.1,4.5
		c-2.1-0.2-4.8-0.2-6.7-0.2h-1.6v19.5c0,1.8,0.4,3.9,0.4,3.9H97.7z"/>
	<path id="XMLID_10_" class="st0" d="M130.8,48.6c-1.6-0.4-3.6-0.7-5.3-0.7c-4.7,0-8.7,1.4-12.1,4.4l0.1-3.3c3.6-2.4,7.6-3.5,12-3.5
		c1.9,0,3.6,0.3,5.4,0.7L130.8,48.6z"/>
	<path class="st0" d="M77.3,64.3h-4V54.3c0,0,1.9-0.1,4.2-0.1c0.3,0,0.7,0,1,0c3.7,0.3,5.2,2.3,5.2,4.8c0,2.7-2.1,4.8-5.2,5.2
		C78.1,64.3,77.7,64.3,77.3,64.3 M88.2,74.8l-7.4-7.2c4.6-0.4,8.4-3.8,8.4-8.2c0-4.7-2.7-8.8-10.6-9.1c-0.3,0-0.7,0-1,0
		c-5.5,0-9.3,0.3-9.3,0.3s0.3,2.7,0.3,4.1v20.1c0,1.9-0.4,3.8-0.4,3.8h5.6c0,0-0.4-1.9-0.4-4.2v-8.2l5.2,5.5l2.6,2.7
		c1.6,1.8,4.5,4.1,4.5,4.1H93C93,78.6,89.7,76.3,88.2,74.8"/>
	<path class="st0" d="M192.6,119.4v-9.6c0-3.4-0.6-4.2-3.4-4.2h-21.9c-2.8,0-3.4,0.8-3.4,4.2v9.6H192.6z M163.8,123.1v8.6
		c0,3.4,0.6,4.2,3.4,4.2h24c3.7,0,5.8-0.2,8-0.7l-0.8,4.4h-31.7c-7.2,0-9.8-2.2-9.8-9.8v-18.1c0-7.5,2.6-9.8,9.8-9.8h22.7
		c7.2,0,9.8,2.2,9.8,9.8v11.4H163.8z M142.2,116.5c7.2,0,9.8,2.2,9.8,9.8v6.9c0,4.2-2.3,6.4-9.1,6.4h-30l-0.6-4.4
		c2.2,0.6,4.3,0.7,8,0.7h22c2.8,0,3.4-0.8,3.4-4.2v-4.5c0-3.4-0.6-4.2-3.4-4.2h-20.3c-7.2,0-9.8-2.2-9.8-9.8v-1.6
		c0-7.5,2.6-9.8,9.8-9.8h29.2l0.7,4.4c-2.2-0.6-4.3-0.7-8-0.7h-21.5c-2.8,0-3.4,0.8-3.4,4.2v2.6c0,3.4,0.6,4.2,3.4,4.2H142.2z
		 M105.1,88.3v43.3c0,3.7,0.2,5.8,0.7,8h-8.2c0.6-2.2,0.7-4.3,0.7-8V96.3c0-3.7-0.2-5.8-0.7-8H105.1z M48.1,110c0-3.7-0.2-5.8-0.7-8
		h7.4v29.8c0,3.4,0.6,4.2,3.4,4.2h21.6c2.8,0,3.4-0.8,3.4-4.2V110c0-3.7-0.2-5.8-0.7-8H90v29.7c0,3.7,0.2,5.8,0.7,8H84l-0.4-2.7
		h-0.2c-0.2,0.9-0.6,1.6-1.4,2.1c-0.6,0.4-1.6,0.6-2.8,0.6H57.9c-7.2,0-9.8-2.2-9.8-9.8V110z M7.3,131.7c0,3.4,0.6,4.2,3.4,4.2h21
		c2.8,0,3.4-0.8,3.4-4.2v-22c0-3.4-0.6-4.2-3.4-4.2h-21c-2.8,0-3.4,0.8-3.4,4.2V131.7z M0.6,110c0-3.7-0.2-5.8-0.7-8h6.7l0.4,3.3
		h0.2c0.2-2.5,2.2-3.3,5.2-3.3h19.6c7.5,0,10,2.2,10,9.8v18.1c0,7.5-2.6,9.8-9.5,9.8H12.7c-2.6,0-4.6-0.6-5.2-2.6H7.3v8.8
		c0,3.7,0.2,5.8,0.7,8h-8.2c0.6-2.2,0.7-4.3,0.7-8V110z"/>
</g>
</svg>
