<?xml version="1.0" encoding="utf-8"?>
<!-- Generator: Adobe Illustrator 19.0.0, SVG Export Plug-In . SVG Version: 6.00 Build 0)  -->
<!DOCTYPE svg PUBLIC "-//W3C//DTD SVG 1.1//EN" "http://www.w3.org/Graphics/SVG/1.1/DTD/svg11.dtd" [
	<!ENTITY ns_extend "http://ns.adobe.com/Extensibility/1.0/">
	<!ENTITY ns_ai "http://ns.adobe.com/AdobeIllustrator/10.0/">
	<!ENTITY ns_graphs "http://ns.adobe.com/Graphs/1.0/">
	<!ENTITY ns_vars "http://ns.adobe.com/Variables/1.0/">
	<!ENTITY ns_imrep "http://ns.adobe.com/ImageReplacement/1.0/">
	<!ENTITY ns_sfw "http://ns.adobe.com/SaveForWeb/1.0/">
	<!ENTITY ns_custom "http://ns.adobe.com/GenericCustomNamespace/1.0/">
	<!ENTITY ns_adobe_xpath "http://ns.adobe.com/XPath/1.0/">
]>
<svg version="1.1" id="Layer_1" xmlns:x="&ns_extend;" xmlns:i="&ns_ai;" xmlns:graph="&ns_graphs;"
	 xmlns="http://www.w3.org/2000/svg" xmlns:xlink="http://www.w3.org/1999/xlink" x="0px" y="0px" viewBox="0 0 200 200"
	 style="enable-background:new 0 0 200 200;" xml:space="preserve">
<style type="text/css">
	.st0{fill:#FFFFFF;}
</style>
<metadata>
	<sfw  xmlns="&ns_sfw;">
		<slices></slices>
		<sliceSourceBounds  width="197.6" height="130.6" y="-165" x="0.8" bottomLeftOrigin="true"></sliceSourceBounds>
	</sfw>
</metadata>
<g>
	<path id="XMLID_23_" class="st0" d="M129.6,68.5c-5.7,0-10.5-4.1-11.3-9.8h10.8c1.2,0,3.8,0.3,3.8,0.3v-4.8c0,0-2.5,0.2-4,0.2
		h-10.6c1.1-5.6,5.7-9.5,11.3-9.5c3,0,6.6,1.4,6.6,1.4l0.1-5c0,0-2.6-1-6.7-1c-9.5,0-17.7,7.2-17.7,16.4c0,10,8.3,16.7,17.7,16.7
		c4.5,0,7.1-1.2,7.1-1.2l-0.1-5.2C136.6,66.9,133.3,68.5,129.6,68.5"/>
	<path id="XMLID_22_" class="st0" d="M97.4,73.2c0,0,0.4-2.4,0.4-4.5V45.8h-1.6c-2.1,0-5.4,0-7.8,0.2l-0.2-5.3h25.1l-0.1,5.3
		c-2.5-0.2-5.7-0.2-7.8-0.2h-1.9v22.9c0,2.1,0.4,4.5,0.4,4.5H97.4z"/>
	<path id="XMLID_21_" class="st0" d="M136.4,38.1c-1.8-0.5-4.3-0.9-6.3-0.9c-5.5,0-10.3,1.7-14.2,5.2l0.1-3.9
		c4.2-2.9,9-4.1,14.2-4.1c2.3,0,4.3,0.3,6.4,0.9L136.4,38.1z"/>
	<path class="st0" d="M73.4,56.5h-4.7V44.7c0,0,2.3-0.1,5-0.1c0.4,0,0.8,0,1.2,0c4.4,0.4,6.1,2.7,6.1,5.6c0,3.2-2.5,5.6-6.1,6.1
		C74.4,56.4,73.9,56.5,73.4,56.5 M86.2,68.7l-8.7-8.4c5.4-0.5,9.9-4.5,9.9-9.6c0-5.5-3.1-10.3-12.5-10.7c-0.4,0-0.8,0-1.2,0
		c-6.5,0-10.9,0.3-10.9,0.3s0.3,3.2,0.3,4.8v23.6c0,2.2-0.4,4.5-0.4,4.5h6.5c0,0-0.4-2.3-0.4-4.9v-9.6l6.2,6.4l3.1,3.2
		c1.9,2.1,5.3,4.8,5.3,4.8h8.6C91.8,73.2,88,70.5,86.2,68.7"/>
	<path class="st0" d="M8.4,108.9h1.2l12.9,18.8h5.8l-13.5-19.2c6.5-0.6,10.6-5.2,10.6-11.8c0-9.6-7.5-11.8-15.5-11.8H3.7v42.7h4.7
		V108.9z M8.4,89.3h1.4c5.7,0,10.8,0.7,10.8,7.7c0,6.6-5.4,7.7-10.8,7.7H8.4V89.3z"/>
	<path class="st0" d="M73.6,127.6h7.9c6.6,0,11.7-0.8,16.8-5.4c4.7-4.2,6.9-9.7,6.9-15.9c0-6.3-2.2-12.1-7-16.3
		c-5-4.3-10.2-5.2-16.5-5.2h-8V127.6z M78.3,123.2V89.4h3.4c5,0,9.3,0.7,13.2,4.1c3.7,3.2,5.5,7.9,5.5,12.8c0,4.8-1.8,9.2-5.3,12.5
		c-3.9,3.7-8.2,4.4-13.4,4.4H78.3z"/>
	<rect id="XMLID_14_" x="111.8" y="84.9" class="st0" width="4.7" height="42.7"/>
	<path class="st0" d="M145.1,84.2c-12.1,0-22.1,9.9-22.1,22.1c0,12.3,10,22,22.1,22c12.1,0,22.1-9.7,22.1-22
		C167.2,94.1,157.2,84.2,145.1,84.2 M145.1,88.6c9.7,0,17.4,8,17.4,17.6c0,9.6-7.8,17.6-17.4,17.6c-9.6,0-17.4-8-17.4-17.6
		C127.8,96.6,135.4,88.6,145.1,88.6"/>
	<polygon id="XMLID_11_" class="st0" points="183.9,89.4 186.3,84.9 195.6,84.9 195.6,127.6 190.9,127.6 190.9,89.4 	"/>
	<path class="st0" d="M42.6,111.1L49.8,94l7.1,17.1H42.6z M50.8,84.9h-1.8l-18.7,42.7h5.2l5.1-12.1h18.2l5,12.1h5.2L50.8,84.9z"/>
	<path id="XMLID_8_" class="st0" d="M180.9,145.2c-0.1-0.5-0.3-1-0.4-1.8c-0.1,0.5-0.2,1-0.3,1.4c-0.1,0.5-0.2,0.9-0.4,1.3l-2.1,6.7
		h5.5l-2.1-6.7C181.1,146,181,145.6,180.9,145.2"/>
	<path id="XMLID_7_" class="st0" d="M159.8,144.4h-1.1v5.3h1c1.2,0,2.1-0.2,2.6-0.6c0.6-0.4,0.8-1,0.8-1.9c0-1-0.3-1.7-0.8-2.2
		C161.9,144.6,161,144.4,159.8,144.4"/>
	<path class="st0" d="M185.4,160.5l-1-3.7h-7.9l-1.1,3.7h-5.5l7-20.4h7l7.1,20.4H185.4z M163.4,160.5l-4.7-8v8h-5.2v-20.4h5.8
		c2.3,0,3.9,0.1,4.8,0.3c0.9,0.2,1.7,0.6,2.3,1.1c0.7,0.6,1.3,1.3,1.7,2.1c0.4,0.9,0.6,1.8,0.6,2.9c0,1.6-0.4,2.9-1.2,3.9
		c-0.8,1-1.9,1.6-3.4,2l5.5,8.2H163.4z M150.3,144.9h-4.6v15.6h-5.6v-15.6h-4.6v-4.8h14.7V144.9z M128.6,160.5l-3.4-6.1
		c-0.2-0.3-0.3-0.6-0.4-0.8c-0.1-0.3-0.2-0.6-0.3-0.9c-0.1,0.3-0.2,0.6-0.3,0.9c-0.1,0.3-0.2,0.5-0.4,0.8l-3.5,6.1h-6.3l7.6-10.7
		l-6.8-9.7h6.6l2.5,4.7l0,0.1c0.3,0.6,0.5,1.2,0.7,1.6c0.1-0.4,0.3-0.9,0.6-1.5c0-0.1,0.1-0.1,0.1-0.2l2.5-4.7h6.6l-6.8,9.8
		l7.5,10.6H128.6z M112.3,144.6h-7.1v3.5h6.7v4.4h-6.7v3.4h7.1v4.6H99.8v-20.4h12.5V144.6z M183.5,135.2H15.7
		c-8.2,0-14.9,6.7-14.9,14.9c0,8.2,6.7,14.9,14.9,14.9h167.8c8.2,0,14.9-6.7,14.9-14.9C198.4,141.9,191.8,135.2,183.5,135.2"/>
</g>
</svg>
