<?xml version="1.0" encoding="utf-8"?>
<!-- Generator: Adobe Illustrator 19.0.0, SVG Export Plug-In . SVG Version: 6.00 Build 0)  -->
<!DOCTYPE svg PUBLIC "-//W3C//DTD SVG 1.1//EN" "http://www.w3.org/Graphics/SVG/1.1/DTD/svg11.dtd" [
	<!ENTITY ns_extend "http://ns.adobe.com/Extensibility/1.0/">
	<!ENTITY ns_ai "http://ns.adobe.com/AdobeIllustrator/10.0/">
	<!ENTITY ns_graphs "http://ns.adobe.com/Graphs/1.0/">
	<!ENTITY ns_vars "http://ns.adobe.com/Variables/1.0/">
	<!ENTITY ns_imrep "http://ns.adobe.com/ImageReplacement/1.0/">
	<!ENTITY ns_sfw "http://ns.adobe.com/SaveForWeb/1.0/">
	<!ENTITY ns_custom "http://ns.adobe.com/GenericCustomNamespace/1.0/">
	<!ENTITY ns_adobe_xpath "http://ns.adobe.com/XPath/1.0/">
]>
<svg version="1.1" id="Layer_1" xmlns:x="&ns_extend;" xmlns:i="&ns_ai;" xmlns:graph="&ns_graphs;"
	 xmlns="http://www.w3.org/2000/svg" xmlns:xlink="http://www.w3.org/1999/xlink" x="0px" y="0px" viewBox="0 0 200 200"
	 style="enable-background:new 0 0 200 200;" xml:space="preserve">
<style type="text/css">
	.st0{fill:#FFFFFF;}
</style>
<metadata>
	<sfw  xmlns="&ns_sfw;">
		<slices></slices>
		<sliceSourceBounds  width="199" height="125.8" y="-162.8" x="0.5" bottomLeftOrigin="true"></sliceSourceBounds>
	</sfw>
</metadata>
<g>
	<path class="st0" d="M13.1,146.6c0.3,0.5,0.6,1.2,0.6,2.9v8.3c0,0-5.2-6.9-5.2-6.9l-1.6-2.4l-1.4-2.1C5.1,146,4.6,146,4.1,146H0.5
		l0.7,0.7c0.7,0.6,0.7,1.8,0.7,3v5.2c0,2.1,0,5.1-0.9,7l-0.3,0.6H5l-0.3-0.6c-0.7-1.6-0.7-3.6-0.7-5.4c0-0.1,0-5.7,0-6.5
		c0.5,0.7,9.4,12.6,9.4,12.6h2.4l0-1l0-1.7V150c0-1.4,0.2-2.5,0.7-3.5l0.3-0.6h-4L13.1,146.6z M24.2,153.8c0.4-0.9,2-4.7,2-4.7
		c0,0,0-0.1,0.1-0.2c0,0.1,0.1,0.1,0.1,0.1s1.3,3.9,1.6,4.7H24.2z M29.1,147.9l-0.6-1.9l-3.7,0l0,1c0,1.9-5.3,12.3-6.8,14.1
		l-1.1,1.3h4.5l-0.1-1.3c0-1.2,1-3.4,2.1-5.6h5.3c0.2,0.5,2.8,6.9,2.8,6.9h3.8l-0.9-1.5C32.2,156.9,30.6,152.3,29.1,147.9
		 M114.5,148c1.9,0,3.1-0.5,3.5-1.5l0.2-0.5h-14l-0.9,3.2l0.9-0.7c0.5-0.4,1-0.5,1.6-0.5h3.1v10.8c0,1.1,0,2.3-0.5,3l-0.4,0.6h5
		l-0.4-0.6c-0.5-0.7-0.5-1.9-0.5-3V148H114.5z M166.1,146.6l0.4-0.6h-4.9l0.3,0.6c0.5,0.9,0.5,1.8,0.5,3v3.1h-6.9v-3.1
		c0-1.1,0-2.2,0.5-3l0.3-0.6h-4.9l0.3,0.6c0.5,0.9,0.6,1.9,0.6,3v9.2c0,1.1,0,2.1-0.6,3l-0.4,0.6h4.9l-0.3-0.6
		c-0.5-0.9-0.5-1.8-0.5-3v-4.3h6.9v4.3c0,1,0,2.1-0.5,3l-0.3,0.6h4.9l-0.4-0.6c-0.5-0.9-0.6-1.8-0.6-3v-9.2
		C165.6,148.4,165.6,147.4,166.1,146.6 M179.2,148c1.9,0,3.1-0.5,3.4-1.5l0.2-0.5h-14l-0.9,3.2l0.9-0.7c0.5-0.4,1-0.5,1.6-0.5h3.1
		v10.8c0,1.1,0,2.3-0.5,3l-0.4,0.6h5l-0.4-0.6c-0.5-0.7-0.5-1.9-0.5-3V148H179.2z M144,160.2c-1.9,0-3.4-0.6-4.5-1.8
		c-1-1.1-1.5-2.7-1.5-4.6c0-1.5,0.4-6.3,5.3-6.3c2.4,0,3.2,1,3.8,2l0.7,1.2l0.1-1.4l0.1-3.5l-2.7-0.1l-2-0.1c-5.4,0-8.8,3.5-8.8,8.8
		c0,2.5,0.8,4.6,2.3,6.2c1.4,1.5,3.4,2.2,5.7,2.2c4.2,0,6.3-2.4,6.3-3.8v-1.1l-0.7,0.7C147.8,159.1,146.5,160.2,144,160.2
		 M188.1,153.8c0.4-0.9,2-4.7,2-4.7c0,0,0.1-0.1,0.1-0.2c0,0.1,0.1,0.1,0.1,0.1s1.3,3.9,1.6,4.7H188.1z M193,147.9l-0.7-2l-3.7,0
		l-0.1,1c0,1.9-5.3,12.3-6.7,14.1l-1.1,1.3h4.5l-0.1-1.3c0-1.4,1.3-4,2.1-5.6h5.3c0.2,0.5,2.8,6.9,2.8,6.9h3.8l-0.9-1.5
		C196.1,156.9,194.5,152.4,193,147.9 M85.7,160.6h-2.6v-5.8h0.3c1.8,0,4.8,0,5.8-1.6l0.4-0.7l-0.8,0.1c-1.8,0.2-3.8,0.2-5.7,0.2
		v-5.1h2c1.2,0,2.7,0.1,3.6,0.8l0.7,0.6l-0.2-3.2H79.1l0.4,0.6c0.5,0.7,0.5,1.9,0.5,3v9.2c0,1-0.1,2.2-0.6,3l-0.4,0.6h8.3l2.1-0.1
		l0.7,0l0.8-3.7l-0.9,0.7C88.7,160.4,87,160.6,85.7,160.6 M66.8,153.8c0.4-0.9,2-4.7,2-4.7c0,0,0-0.1,0.1-0.2c0,0.1,0.1,0.1,0.1,0.1
		s1.3,3.9,1.6,4.7H66.8z M71.7,147.9l-0.7-2l-3.7,0l0,1c0,1.9-5.3,12.3-6.8,14.1l-1.1,1.3h4.5l-0.1-1.3c0-1.2,1.1-3.5,2.1-5.6h5.3
		c0.2,0.5,2.8,6.9,2.8,6.9h3.8l-0.9-1.5C74.7,156.9,73.2,152.4,71.7,147.9 M98.9,160.6h-1.6v-11.1c0-1.1,0-2.3,0.5-3l0.4-0.6h-5
		l0.4,0.6c0.5,0.7,0.5,1.9,0.5,3v6.9c0,2.1-0.3,4.7-0.8,5.3l-0.5,0.6h8.1l1.9-0.1l0-0.3l0.8-3.5l-0.9,0.8
		C101.6,160.4,100.4,160.6,98.9,160.6 M54.8,154.4c0.5,0.7,0.5,1.9,0.5,3v1.2c0,0.7,0,1.5-0.2,2.2c-0.4,0-1.6,0.1-1.6,0.1
		c-5.7,0-6.9-3.9-6.9-7.1c0-3.2,2.1-6.4,6-6.4c1.9,0,3.3,0.5,5,1.8l0.6,0.5v-3.8l-1.5-0.1l-2.8-0.2c-6.8,0-10.8,3.4-10.8,9
		c0,5.4,3.3,8.2,9.6,8.2c2,0,4.1-0.2,5.6-0.4l0.4-0.1l-0.2-2.5v-2.5c0-1.1,0-2.3,0.5-3l0.4-0.6h-5L54.8,154.4z M123.3,153.8
		c0.4-0.9,2-4.7,2-4.7c0,0,0-0.1,0.1-0.2c0,0.1,0.1,0.1,0.1,0.1s1.3,3.9,1.6,4.7H123.3z M128.3,148.1l-0.7-2.1l-3.7,0l0,1
		c0,1.9-5.3,12.4-6.7,14.1l-1.1,1.3h4.5l-0.1-1.3c0-1.3,1.1-3.6,2.1-5.6h5.4c0.2,0.5,2.8,6.9,2.8,6.9h3.8l-0.9-1.5
		C131.3,157,129.8,152.4,128.3,148.1 M189.2,121.5c-0.1,0.1-0.1,0.2-0.2,0.3c0,0.1,0,0.2,0,0.3C189.3,122.2,189.2,121.8,189.2,121.5
		 M191.7,110.4c0-0.3-0.2-0.5-0.3-0.7c0,0.2,0.1,0.4,0.1,0.5c0,0.1,0,0.1,0,0.2C191.6,110.4,191.6,110.4,191.7,110.4 M198.7,120.4
		c-0.1,0.2-0.2,0.4-0.2,0.7c0.3,0,0.7,0,1-0.1c0,0,0-0.1,0-0.2C199.2,120.8,198.9,120.6,198.7,120.4 M184.2,111.2c0,0.1,0,0.1,0,0.2
		c-0.3,0-0.2,0.1-0.2,0.3C184.3,111.8,184.2,111.4,184.2,111.2 M160.6,122.5c0.2,0.6,0,0.9,0.1,1.2c-0.1-0.6-0.2-1.2-0.2-1.8
		C160.5,122.2,160.5,122.4,160.6,122.5 M158.6,124c0,0.6,0.2,1,0,1.7c0,0,1.8,2.8,2.2,3.2c0,0.4-0.3-0.7-0.6-0.4c0,0.1,0,0.1,0,0.2
		c-0.1,0-0.1,0-0.2,0c0,0.1,0,0.1,0,0.2c0.7,0.1,2.6,3.7,3.4,4.3c1.9,1.4,4.2,4.3,6.6,4.9c1.1,0.3,1.4,2.2,2.6,2.4
		c0,0.1,0,0.1,0,0.2c-0.2,0-0.3,0-0.5-0.1c0,0.1,0,0.1,0,0.2c1.3,0.1,2.8,0.2,4-0.1c0.1,0,0.2,0,0.3,0c0-0.1,0-0.2,0-0.3
		c0,0-0.1,0-0.2,0c0-0.3-0.5-0.1-0.7-0.1c0-0.1,0-0.1,0-0.2c0.1,0,0.1,0,0.2,0c0-0.2,1.6-0.1,1.9-0.1c1.6,0,0.4,0.5,1.9,0.6
		c2.4,0.2,4.6-0.2,6.3-1c1.1-0.5,1.3-1.8,2.4-2.2c0,0.4,0.3-0.1,0.6,0c0.7,0.2,1.2-0.6,1.7-1.2c0.2-0.3,1.1-0.5,1.3-0.8
		c0.3-0.4,0.9-0.4,1.2-0.8h0c0,0,0,0,0,0c0,0,0-0.1,0.1-0.1c0,0,0,0-0.1,0c0.2-1.7,1.1-1.9,1.7-3.3c0.2,0,0.2,0,0.2,0.2
		c0.4,0,0.8,0,1.2,0c0.1-0.7-0.2-1.3-0.5-1.8c0-0.3,0.3-0.3,0.6-0.5c0.2,0,0.2,0.1,0.2-0.2c0.1,0,0.1,0,0.2,0c0-0.1,0-0.1,0-0.2
		c-0.1-0.4,0-0.9,0-1.4c-0.1-0.6,0.3-0.4,0.2-1.1c0-0.7,0-1.4,0-2.1c0-0.1,0.1-0.2,0.1-0.3c0.1,0-0.5,0.1-0.5,0.1
		c0-0.1,1.7-0.5,1.9-0.6c-0.2,0-0.4,0.1-0.5,0.1c0,0-0.4-2-0.5-2.3c-0.6-0.1-0.7-0.3-0.6-0.6c0,0,0,0,0,0c0-0.1,0-0.1,0-0.2
		c0-0.1,0.1-0.3,0.2-0.4c0,0-0.1,0-0.1,0c0.1-0.3,0.2-0.7,0.1-0.9c-0.5-1.7-1.8-3.3-2.3-5c-0.1-0.8-0.3-1.7-0.4-2.5
		c-0.2-0.3-0.5-0.5-0.7-0.8c-0.9-1.1-0.7-1.5-2.4-1.6c0,0.2,0.9,1.4,1,1.8c0.3,0-0.1,0.3-0.2,0.5c0.4,0,0.3,0.6,0.4,0.9
		c0,0.1,0,0.1,0,0.2c-0.1,0-0.2,0-0.3,0c0.1-0.8-1.8-3-2.3-3.7c-0.3-0.5-0.6-1.1-0.9-1.6c-0.1,0-0.2,0-0.2,0c0-0.4-0.5-0.3-0.6-0.5
		c-0.1-0.4-0.3-0.9-0.4-1.3c0-0.1,0-0.2,0-0.3c-0.1,0-0.1,0-0.2,0c0,0.1,0,0.1,0,0.2c-0.2,0-0.3,0.1-0.4,0.3c-0.7-0.1-2.4-1.1-3-1.5
		c0,0.1,0.1,0.1,0.2,0.2c0,0.1,0,0.1,0,0.2c-0.8-0.1-1.9-0.3-2.6-0.1c-2.2-0.2-3.7-0.1-5.3,1.3c-0.4,0.3-0.7,0.6-0.6,1.2
		c0.2,1.8,5.1,1.2,6.4,1.2c0,0.1,0,0.2,0,0.3c-0.1,0-0.1,2.2-0.1,2.7c0.6,0.1,0.7,0.1,1.2,0.6c0-0.1,0-0.1,0-0.2c0.1,0,0.1,0,0.2,0
		c0,0,0-0.1,0-0.2c0.1,0,0.1-0.2,0.1-0.4c0.1,0.1,0.3,0.2,0.4,0.3c0-0.2,0.1-0.2-0.2-0.2c0-0.2-0.1-0.2-0.2-0.2c0-0.1,0-0.2,0.1-0.3
		c0-0.3,0.1-0.2,0.3-0.2c1.5,0,1.2,2,0.4,2c-0.2,0,0.2,1.2,0.2,1.6c0.2,0,0.5,0,0.7,0.1c0-0.1,0-0.1,0-0.2c0.3,0,0.2-0.3,0.2-0.5
		c0.2-1.5,1.2-1.7,2.6-1.8c-0.1,0.5,0.6,0.9,0.8,1.4c0.1,0.4,0.3,0.9,0.4,1.3c0.2,0.5,0.5,1,0.7,1.5c0.2,0,0.2,0.6,0.5,0.7
		c0,0.1,0,0.1,0,0.2c0.3,0,0.5,3.3-0.2,3.8c0,0.1,0,0.2,0,0.3c0.3,0,0.2,0.3,0.2,0.5c0,1.2,0.2,2.9-0.5,3.6c0-0.1-0.2-0.4-0.4-0.7
		c-0.7,0.4-0.9,1.1-1.3,1.7c-0.8,1-1.5,2.1-2.3,3.1c-0.3,0.6-1.3,1-1.7,1.6c0,0.1,0,0.1,0,0.2c1.1,0.1,4.5-3.8,4.9-4.7
		c0.1,0,0.1,0,0.2,0c-0.1,1.2-2.4,3.5-2.3,4.4c0,0.3-0.1,0.2-0.4,0.1c0,0.2-0.4,0.1-0.6,0.2c0.1,0,0.2,0.1,0.1,0.1c0,0-0.1,0-0.3,0
		c0,0.1,0,0.1,0,0.1c-0.1,0-0.1,0-0.2,0c0-0.1,0-0.1,0-0.2c0,0,0,0,0,0c-0.1,0-0.2,0-0.2,0c-0.2,0-0.5,0.2-0.7,0.3
		c0,0.2,0.2,0.4,0.3,0.5c-0.1,0.6-1.8,1-2.3,1.5c-0.4,0.4-1.2,0.4-1.8,0.7c-0.7,0.3-1.5,0.5-2.2,0.4c0,0.1,0,0.1,0,0.2
		c-0.4,0-0.4,0.8-0.7,1c-0.1,0-0.1,0-0.2,0c0-0.3-0.4-0.1-0.7-0.2c-1.4-0.1-2.7,0.5-4.2,0.3c0,0.1,0,0.1,0,0.2
		c-0.5,0-1.5-0.5-1.9-0.2c-1.1-0.1-1.1-2.9-2-3.3c0,0.4,0.1,1,0.2,1.4c-0.1,0-0.2,0-0.4,0c0-0.2,0.1-0.2-0.2-0.2c0,0.1,0,0.2,0,0.3
		c0.4,0,0.7,0.4,1,0.6c0,0.1,0,0.1,0,0.2c-0.8-0.1-2.8-0.7-3.4-1.2c-1.3-1.1-1.8-2.8-3-3.9c-1.5-1.6-2.1-3.2-2.4-4.9
		c0,0.1,0.1,0.2,0.1,0.4c0.4,0.8,0.4,1,0.9,1.6c0.3,0.5,0.4,1.3,0.6,1.7c0.6,1,2.6,2.9,3.6,3.7c0,0.1,0.1,0.4,0.1,0.5
		c0,0,0.2-0.2,0.3-0.3c-0.4-0.4-0.9-1.2-1-1.4c-1.6-2-2.9-3.8-3.9-6.1c-0.6-1.5-0.3-2.8-0.7-3.5c-0.5-1.1,0.1-3.8-0.4-4.9
		c-0.4-0.9,0-1.2-0.1-2.2c-0.5,0-0.2,2.8-0.2,3.3c-0.1,0-0.2,0-0.3,0c0-0.3-0.1-0.4-0.3-0.5c0,0,0-0.1,0-0.2c-0.1,0-0.2,0-0.4,0
		c0,0.4,0,0.7-0.3,0.8c-0.2,2.4-0.6,3.7-0.3,5.8C158.3,123,158.7,123.5,158.6,124 M188.9,138.3c0,0.1,0,0.1,0,0.2
		c-0.3,0-0.1,0.2,0,0.4C188.9,138.6,188.9,138.4,188.9,138.3 M187.8,140.2c0-0.5,0.6-0.9,1-1.1c0-0.1,0-0.2,0-0.3
		c-0.2,0-0.3,0-0.5-0.1c-0.2,0.3-0.4,0.5-0.6,0.8c-0.1,0.2-0.1,0.3-0.2,0.5c0.1,0,0.1,0,0.2,0c0,0.1,0,0.1,0,0.2
		C187.7,140.2,187.7,140.2,187.8,140.2 M53.5,109.9c0.1-0.3,0.5-1.4,1-1.4c0.6,0,0.9,1,1,1.4l4.2,12.2H48.3L53.5,109.9z M47.2,124.4
		h13.6l6.6,16H74l-1.2-2.1c-6-10.6-9.9-22.9-13.8-34.3h-7.1l-0.1,1.5c0,4.7-12.4,29.2-15.9,33.3l-1.3,1.6h7.6
		c-0.1-0.7-0.2-1.4-0.2-2.2C41.9,135,44.7,129.4,47.2,124.4 M8.1,108.4c0-0.9,0.1-1.9,0.1-2.7H11c5.4,0.1,8.8,0.8,8.8,6.5
		c0,5.4-3.2,8.4-9.1,8.4c-0.9,0-1.8-0.1-2.7-0.2V108.4z M9.4,140.4c-1.3-1.9-1.3-4.9-1.3-7.5v-10.3c3.5,0.3,3.9,1.2,6.5,4.7l7.4,9.9
		c1.3,1.8,2.5,3.1,5.1,3.1H32c-2.5-2.2-3.3-3.1-5.1-5.3l-10.5-13.7c4.3-1.7,8.9-5.1,8.9-10.3c0-4.5-3.2-7.7-9.4-7.7
		c-4.7,0-9.6,0.6-14.6,0.6c1.3,1.9,1.3,4.9,1.3,7.5v21.1c0,2.5,0.1,5.2-1.6,7.8H9.4z M150.9,104h-8.1c1.3,1.9,1.3,4.9,1.3,7.5v21.5
		c0,2.6,0,5.5-1.3,7.5h8.1c-1.3-1.9-1.3-4.9-1.3-7.5v-21.5C149.6,108.9,149.6,105.9,150.9,104 M80.7,140.4h8.1
		c-1.3-1.9-1.3-4.9-1.3-7.5v-21.5c0-2.6,0-5.5,1.3-7.5h-8.1c1.3,1.9,1.3,4.9,1.3,7.5v21.5C82.1,135.5,82.1,138.5,80.7,140.4
		 M185.6,130.3c0,0-0.1,0-0.1,0C185.5,130.4,185.5,130.4,185.6,130.3C185.6,130.4,185.6,130.4,185.6,130.3 M106.5,108.8
		c0-0.9,0-1.8,0-2.7c1.3-0.2,3.5-0.5,5.8-0.5c10.8,0,16.5,6.2,16.5,16.1c0,9.4-3.8,16.5-14.6,16.5c-6.5,0-7.7-0.2-7.7-4.3V108.8z
		 M99.8,140.4c4.2,0,8.5,0.2,14.6,0.2c11.5,0,20.8-7.1,20.8-19.8c0-10.2-6.9-17.4-17-17.4c-6.2,0-12.3,0.6-18.4,0.6
		c1.3,1.9,1.3,4.9,1.3,7.5v21.5C101.1,135.5,101.1,138.5,99.8,140.4 M185.6,130.3c0,0,0.1-0.1,0.2-0.1
		C185.7,130.2,185.6,130.2,185.6,130.3 M177.4,90.2v0.3C177.5,90.5,177.5,90.3,177.4,90.2 M172.4,96.1L172.4,96.1L172.4,96.1
		c0.1,0,0-0.1,0-0.2c0.2,0,0.3-0.2,0.4-0.3c0,0.3,0.5,0.4,0.7,0.4c0-0.1-0.1-0.3-0.1-0.4c0.1,0,0.1,0,0.1,0.1c0.2,0,0.3,0.1,0.4,0.1
		c0.4,0.1,0.7,0.1,1,0.4v0.1c0.1,0,0.2-0.1,0.3-0.2h0.1v0.1c0.2,0,0.1,0.4,0.1,0.6h0.2v-0.1c0.1,0,0-1.3,0.1-1.5
		c0.2,0,0.4,0,0.5,0.1h0.1c0-0.5,0.8-0.4,1.1-0.5c0.2,0,0.3-0.1,0.4-0.1c0.2,0.1,0.3,0.1,0.5,0.2c0,0.2,0.1-0.3,0.2-0.3
		c0.3,0,1.3,0.9,1.6,1.2c0-0.1,0.1-0.1,0.2-0.2c0-0.1,0-0.1,0.1-0.1v0.1c0.1,0,0.2,0.1,0.3,0.1c0.3,0.1,0.5-0.2,0.7-0.3
		c0-0.1,0-0.1,0.1-0.1c0,0.2,0.3,0.2,0.4,0.2c0.5,0.1,0.9,0.1,1.4,0.2c1,0.3,1.9,0.8,3.1,0.9c0.8,0.1,1.4-0.2,2.1-0.2
		c0-0.1-0.1-0.2-0.2-0.4c0.3,0,0.3-0.3,0.3-0.5h0.1c0-0.1,0.1-0.1,0.2-0.1c0.6,0.1,1.2,0.8,1.5,1.3c0.1,0,0.3-0.1,0.4-0.1
		c0,0.2,0.2,0.3,0.3,0.4c0.8,0.9,1.8,1.3,3.1,1.4v-0.2c-0.1,0-0.1,0-0.1-0.1c-0.3-0.4-0.5-0.8-0.9-1.1c-0.2-0.1-0.5-0.3-0.8-0.4
		c-0.3-0.3-0.3-0.6-0.5-0.9c-0.3-0.5-1.1-0.7-1.5-1c0-0.6-1.4-0.7-1.8-0.8h-0.1c0,0.1,0,0.1-0.1,0.1v0.2h-0.1c0-0.2,0-0.3-0.1-0.5
		c-0.1,0-0.1,0-0.1,0.1c-0.2,0-0.4-0.1-0.6-0.1h-0.3c0-0.2,0-0.3,0.1-0.5c-0.2,0-0.3-0.1-0.4-0.1v-0.1h-0.1c0,0.3-0.3,0.4-0.5,0.5
		v0.1c-0.1,0-0.2-0.5-0.3-0.6c-0.2,0-0.2,0.3-0.2,0.5h-0.2c0-0.7-0.2-1.3,0.4-1.7v-0.1c-0.3,0-0.4-0.4-0.3-0.7c-0.2,0-0.4-0.1-0.6,0
		c-0.3,0-0.6,0-0.8,0.2c-0.2,0,0,0.2,0,0.3h-0.3c0-0.1-0.1-0.2-0.1-0.3h-0.1c-0.1,0.3-0.2,0.6-0.3,0.9c-0.3,0-0.7-0.5-0.8-0.7
		c-0.1,0-0.1,0.2-0.1,0.3c-0.1,0-0.1,0-0.1-0.1c-0.1,0-0.2,0.1-0.3,0.1V92H182c0-0.1,0.1-0.2,0.2-0.3c-0.1,0-0.3-0.3-0.4-0.3
		c0-0.1,0.2-0.3,0.3-0.3v-0.1c-0.2,0-0.3-0.1-0.5-0.3c-0.2,0.1-0.5,0.2-0.7,0.3c-0.2,0-0.5,0-0.8,0.1v0.1c-0.1,0-0.1-0.1-0.1-0.3
		h-0.1V91c-0.1,0-0.2,0-0.3,0.1c-0.5,0-0.8,0.3-1.1,0.7v0.1h-0.2c0-0.1-0.1-0.3-0.1-0.4h-0.2v0.1c-0.1,0-0.2,0.1-0.3,0.1h-0.6v-0.1
		h-0.1c-0.1,0.4-0.4,0.7-0.8,0.9c-0.5,0.2-1.1,0.1-1.6,0.3c-1.1,0.4-2.8,1.4-3.4,2.5c-0.2,0.3-0.2,0.7-0.2,1.1h0.2
		C171.4,95.7,172.1,96,172.4,96.1 M187.3,104.3c-0.2,0-0.3,0-0.5-0.1C186.9,104.3,187.1,104.4,187.3,104.3 M191.4,95v0.2
		c0.1,0,0.1,0,0.2-0.1c-0.1,0-0.1,0-0.1-0.1H191.4z M189.6,107.5c0.2,0,0.3-0.1,0.4-0.3c-0.1,0-0.2,0-0.3,0
		C189.6,107.2,189.6,107.4,189.6,107.5 M191,94.4h0.2c0,0.2,0.4,0.2,0.5,0.3v-0.1c-0.4,0-0.7-0.5-1-0.7c-0.3-0.2-0.5-0.3-0.8-0.3
		c0.3,0.4,0.6,0.8,1,1.2C191.1,94.8,191,94.5,191,94.4 M195.7,99.3c0-0.1-0.1-0.1-0.3-0.1c0,0.1,0.1,0.1,0.1,0.2
		C195.6,99.4,195.7,99.3,195.7,99.3 M176.2,128.4c0.9-0.1,4-0.9,4.7-1.3c1.4-1,2.7-4.2,2.8-6c-0.1-0.6-0.1-1.2-0.2-1.7
		c0-0.5-0.1-1-0.1-1.5c-0.9-2.2-4-5.6-6.6-3.4c-0.5,0.4-0.9,0.8-1,1.5c-0.1,0.7,0.4,1.3,0.5,1.9c-0.2,0-0.4,0-0.5,0
		c0,0.2,0,0.2-0.2,0.2c0,0.3-0.5,0.2-0.7,0.3c0,0.2,0.1,0.5,0.1,0.7c-0.4,0-0.8,1-1,1.3c0.5,0,0.5,1.1,0.6,1.4c0.1,0,0.1,0,0.2,0
		c0-0.3,0.2-0.2,0.4-0.3c0,0.1,0,0.1,0,0.2c0.1,0,0.2,0,0.4,0c-0.1,1.4-1.3,0.7-2.2,0.8c-0.2,0-0.5,0.1-0.7,0.1c0-0.1,0-0.1,0-0.2
		c-0.1,0-0.2,0-0.4,0c0.1-0.5-1.6-0.5-2.2-0.6c0-0.4-0.3-0.9-0.4-1.2c-0.4-0.9-0.8-2-0.9-3.1c-0.2-1.9,1.1-3.2,1.6-4.6
		c0.3-0.7,0.5-1.5,0.8-2.2c0.6-0.7,1.2-1.3,1.8-2c0.3,0,0.1-0.2,0-0.3c0-0.3-0.5-0.4-0.8-0.4c-2.3,1.1-3,2.7-4.2,4.7
		c-0.7,1.2-1.4,2.2-1.6,3.7c-0.1,1-0.1,2-0.2,3.1c-0.1,1.3-0.2,2.5,0.2,3.6C167.6,126.1,172.7,128.7,176.2,128.4 M196.6,99.4h-0.3
		c0,0-0.1,0.1-0.2,0.1v0.1H196v0.1h0.5V99.4z M192.4,94.4L192.4,94.4L192.4,94.4L192.4,94.4h0.2v-0.2c-0.2,0-0.3-0.1-0.4-0.2
		C192.2,94.2,192.3,94.2,192.4,94.4C192.3,94.4,192.3,94.4,192.4,94.4 M194.8,98.9c0,0.1-0.1,0.1-0.1,0.2c-0.1,0-0.1,0-0.1,0.2
		C194.8,99.2,194.8,99,194.8,98.9 M198.3,120.6c0.3,0,0.1-0.3,0-0.5c-0.1,0.1-0.1,0.2-0.2,0.3C198.4,120.4,198.3,120.4,198.3,120.6
		 M166.6,131.7C166.6,131.7,166.6,131.7,166.6,131.7C166.6,131.8,166.6,131.8,166.6,131.7 M188.5,122.6c0.1,0.3,0.5,0.7,0.8,1.1
		c0.1,0,0.1-0.1,0.2-0.1C189.6,123.5,188.7,122.9,188.5,122.6 M193.5,134.2c-0.1,0-0.1,0-0.2,0c0,0,0,0.1-0.1,0.1
		C193.4,134.3,193.5,134.3,193.5,134.2 M166.4,131.3C166.3,131.3,166.3,131.2,166.4,131.3c-0.1,0-0.1,0.1-0.2,0.1
		c0.2,0.2,0.3,0.3,0.4,0.3C166.5,131.6,166.5,131.3,166.4,131.3 M192.2,110.6c-0.1,0-0.2,0-0.3,0C192,110.8,192,110.7,192.2,110.6
		 M183.8,131.5c-0.2-0.1-0.3-0.1-0.5-0.2c0.2,0.2,0.3,0.4,0.5,0.6C183.8,131.8,183.8,131.6,183.8,131.5 M160.7,107.2
		c0.4-0.7,1.3-2,1.1-2.9c-0.6,1.2-1.3,2.2-1.7,3.6c0.1,0,0.1,0,0.2,0C160.2,107.6,160.5,107.4,160.7,107.2 M182.8,111.4
		c0,0.1,0,0.2,0,0.3c0,0.1,0,0.1,0,0.2c0,0-0.1,0-0.2,0c0,0.1,0,0.1,0,0.2c0.1,0,0.2,0,0.3,0c0-0.1,0-0.1,0-0.2c0.1,0,0.1,0,0.2,0
		c0-0.2,0-0.2-0.1-0.4C182.9,111.4,183,111.5,182.8,111.4 M173.1,121.5c-0.1,0-0.2,0-0.3,0c0,0.3,0.5,0,0.7-0.1c-0.1,0-0.2,0-0.3,0
		C173.1,121.4,173.1,121.4,173.1,121.5 M176.1,133.4c0,0,0,0.1-0.1,0.2c0-0.1-0.8,0-0.9,0c-0.3-0.1-0.2,0.1-0.3,0.3
		c0.2,0.1,1.2,0,1.4,0c0-0.1,0-0.1,0.1-0.2C176.1,133.6,176.2,133.5,176.1,133.4 M171.3,130.4c0.1,0,0.1,0,0.2,0
		c0-0.4-0.8-0.5-1.1-0.6C170.6,130,171,130.2,171.3,130.4"/>
	<path id="XMLID_5_" class="st0" d="M139.8,82.4c-7.5,0-13.9-5.4-15-13.1H139c1.6,0,5,0.3,5,0.3v-6.3c0,0-3.4,0.2-5.3,0.2h-14
		c1.4-7.5,7.6-12.7,15-12.7c3.9,0,8.8,1.8,8.8,1.8l0.1-6.7c0,0-3.4-1.3-8.9-1.3c-12.6,0-23.5,9.6-23.5,21.9
		c0,13.3,11,22.2,23.5,22.2c5.9,0,9.4-1.6,9.4-1.6l-0.2-6.9C149,80.3,144.7,82.4,139.8,82.4"/>
	<path id="XMLID_4_" class="st0" d="M97.1,88.7c0,0,0.5-3.2,0.5-6V52.2h-2.1c-2.8,0-7.1,0-10.3,0.3l-0.3-7.1h33.3l-0.2,7.1
		c-3.3-0.3-7.5-0.3-10.4-0.3h-2.5v30.4c0,2.8,0.6,6,0.6,6H97.1z"/>
	<path id="XMLID_3_" class="st0" d="M148.7,42c-2.4-0.7-5.7-1.2-8.3-1.2c-7.3,0-13.6,2.2-18.9,6.9l0.1-5.2
		c5.6-3.8,11.9-5.5,18.8-5.5c3,0,5.7,0.4,8.4,1.1L148.7,42z"/>
	<path class="st0" d="M65.1,66.4h-6.2V50.7c0,0,3-0.1,6.6-0.1c0.5,0,1.1,0,1.5,0.1c5.8,0.5,8.2,3.6,8.2,7.4c0,4.3-3.4,7.5-8.2,8.2
		C66.5,66.4,65.8,66.4,65.1,66.4 M82.1,82.7L70.6,71.6c7.1-0.7,13.1-5.9,13.1-12.8c0-7.3-4.2-13.7-16.6-14.2c-0.5,0-1.1,0-1.6,0
		C56.9,44.6,51,45,51,45s0.4,4.3,0.4,6.4v31.4c0,2.9-0.6,5.9-0.6,5.9h8.7c0,0-0.6-3-0.6-6.5V69.4l8.2,8.6l4.1,4.3
		c2.5,2.8,7,6.4,7,6.4h11.5C89.7,88.7,84.5,85.1,82.1,82.7"/>
</g>
</svg>
