<?xml version="1.0" encoding="utf-8"?>
<!-- Generator: Adobe Illustrator 19.0.0, SVG Export Plug-In . SVG Version: 6.00 Build 0)  -->
<!DOCTYPE svg PUBLIC "-//W3C//DTD SVG 1.1//EN" "http://www.w3.org/Graphics/SVG/1.1/DTD/svg11.dtd" [
	<!ENTITY ns_extend "http://ns.adobe.com/Extensibility/1.0/">
	<!ENTITY ns_ai "http://ns.adobe.com/AdobeIllustrator/10.0/">
	<!ENTITY ns_graphs "http://ns.adobe.com/Graphs/1.0/">
	<!ENTITY ns_vars "http://ns.adobe.com/Variables/1.0/">
	<!ENTITY ns_imrep "http://ns.adobe.com/ImageReplacement/1.0/">
	<!ENTITY ns_sfw "http://ns.adobe.com/SaveForWeb/1.0/">
	<!ENTITY ns_custom "http://ns.adobe.com/GenericCustomNamespace/1.0/">
	<!ENTITY ns_adobe_xpath "http://ns.adobe.com/XPath/1.0/">
]>
<svg version="1.1" id="Layer_1" xmlns:x="&ns_extend;" xmlns:i="&ns_ai;" xmlns:graph="&ns_graphs;"
	 xmlns="http://www.w3.org/2000/svg" xmlns:xlink="http://www.w3.org/1999/xlink" x="0px" y="0px" viewBox="0 0 200 200"
	 style="enable-background:new 0 0 200 200;" xml:space="preserve">
<style type="text/css">
	.st0{fill:#FFFFFF;}
</style>
<metadata>
	<sfw  xmlns="&ns_sfw;">
		<slices></slices>
		<sliceSourceBounds  width="197.2" height="83.9" y="-141.9" x="1.7" bottomLeftOrigin="true"></sliceSourceBounds>
	</sfw>
</metadata>
<g>
	<path id="XMLID_9_" class="st0" d="M127,88.6c-5.1,0-9.3-3.6-10.1-8.8h9.6c1.1,0,3.4,0.2,3.4,0.2v-4.3c0,0-2.3,0.2-3.5,0.2h-9.4
		c0.9-5.1,5.1-8.5,10.1-8.5c2.7,0,5.9,1.2,5.9,1.2l0.1-4.5c0,0-2.3-0.9-6-0.9c-8.4,0-15.8,6.5-15.8,14.7c0,8.9,7.4,15,15.8,15
		c4,0,6.3-1.1,6.3-1.1l-0.1-4.6C133.3,87.2,130.4,88.6,127,88.6"/>
	<path id="XMLID_8_" class="st0" d="M98.3,92.8c0,0,0.3-2.2,0.3-4V68.3h-1.4c-1.9,0-4.8,0-6.9,0.2l-0.2-4.8h22.4l-0.1,4.8
		c-2.2-0.2-5.1-0.2-7-0.2h-1.7v20.5c0,1.9,0.4,4,0.4,4H98.3z"/>
	<path id="XMLID_7_" class="st0" d="M133.1,61.3c-1.7-0.5-3.8-0.8-5.6-0.8c-4.9,0-9.2,1.5-12.7,4.7l0.1-3.5c3.8-2.6,8-3.7,12.6-3.7
		c2,0,3.8,0.3,5.7,0.8L133.1,61.3z"/>
	<path class="st0" d="M76.8,77.8h-4.2V67.3c0,0,2-0.1,4.5-0.1c0.4,0,0.7,0,1,0c3.9,0.3,5.5,2.4,5.5,5c0,2.9-2.3,5-5.5,5.5
		C77.7,77.8,77.3,77.8,76.8,77.8 M88.3,88.8l-7.8-7.5c4.8-0.5,8.8-4,8.8-8.6c0-4.9-2.8-9.2-11.2-9.6c-0.3,0-0.7,0-1.1,0
		c-5.8,0-9.8,0.3-9.8,0.3s0.3,2.9,0.3,4.3v21.1c0,1.9-0.4,4-0.4,4H73c0,0-0.4-2-0.4-4.4v-8.6l5.5,5.8l2.8,2.9
		c1.7,1.9,4.7,4.3,4.7,4.3h7.7C93.3,92.8,89.9,90.4,88.3,88.8"/>
	<path id="XMLID_4_" class="st0" d="M1.7,140.5C2,134.6,4,130.1,7.5,127c3.6-3.1,9.4-5.5,17.5-7c1.7-0.3,3.9-0.7,6.8-1.2
		c6.3-1,9.4-2.2,9.4-3.7c0-1-0.7-1.7-2-2.2c-1.3-0.5-3.3-0.7-5.8-0.7c-3.5,0-6,0.4-7.7,1.2c-1.6,0.8-2.4,2.1-2.4,3.8v0.1H3.4
		c0.3-4.8,2.8-8.4,7.5-10.8c4.7-2.4,11.8-3.6,21-3.6c9.5,0,16.6,1,21.4,3c4.8,2,7.2,5,7.2,9c0,3.1-1.2,5.5-3.6,7.2
		c-2.4,1.7-6.4,3.1-12.1,4.1c-2.1,0.4-5,0.8-8.7,1.3c-7.8,1.1-12.6,2.3-14.4,3.7h37.8v9.3H1.7z"/>
	<polygon id="XMLID_3_" class="st0" points="177.6,102.9 170.8,125.8 164.4,102.9 142.9,102.9 142.9,140.4 156.3,140.4 156.3,111.1 
		165.2,140.4 176.5,140.4 185.4,111.1 185.4,140.4 198.9,140.4 198.9,102.9 	"/>
	<path class="st0" d="M138.7,101L103,115.8v11.4l35.7,14.8v-11.5c0,0-17.8-7.3-22-9c4.2-1.7,22-9,22-9V101z M64.2,112.4
		c0,0,17.8,7.3,22,9c-4.2,1.7-22,9-22,9v11.4l35.7-14.7v-11.4l-35.7-14.8V112.4z"/>
</g>
</svg>
